<?xml version="1.0" encoding="UTF-8" standalone="no"?>
<svg width="207px" height="41px" viewBox="0 0 207 41" version="1.1" xmlns="http://www.w3.org/2000/svg" xmlns:xlink="http://www.w3.org/1999/xlink" xmlns:sketch="http://www.bohemiancoding.com/sketch/ns">
    <!-- Generator: Sketch Beta 3.2.2 (9983) - http://www.bohemiancoding.com/sketch -->
    <title>logo-jhu-horizontal</title>
    <desc>Created with Sketch Beta.</desc>
    <defs>
        <path id="path-1" d="M0.797907489,23.7585682 L164.938877,23.7585682 L164.938877,0.854477273 L0.797907489,0.854477273"></path>
    </defs>
    <g id="Option-1" stroke="none" stroke-width="1" fill="none" fill-rule="evenodd" sketch:type="MSPage">
        <g id="Public-Homepage---Alternate-Color---01" sketch:type="MSArtboardGroup" transform="translate(-15.000000, -24.000000)">
            <g id="pages/homepage-02-color-01" sketch:type="MSLayerGroup" transform="translate(-1.000000, 0.000000)">
                <g id="Components-/-Header" transform="translate(16.000000, 24.000000)">
                    <g id="modules/logo/jhu-horizon">
                        <g id="logo-jhu-horizontal">
                            <path d="M72.8238767,32.3173182 C72.8238767,31.6016818 72.8010793,30.2729091 72.6104934,29.9272045 C72.5311586,29.7874318 72.3268943,29.7072955 72.044207,29.684 L71.7624317,29.6616364 C71.6958634,29.5787045 71.716837,29.4305455 71.7834053,29.3830227 C72.2147313,29.40725 72.631467,29.4175 73.0728238,29.4175 C73.5470088,29.4175 73.8515815,29.40725 74.2601101,29.3830227 C74.3503877,29.4417273 74.338533,29.5908182 74.2829075,29.6616364 L74.011163,29.684 C73.7293877,29.7072955 73.5132687,29.8107273 73.4457885,29.9616818 C73.2898546,30.3427955 73.2898546,31.6687727 73.2898546,32.3173182 L73.2898546,33.6237273 C73.2898546,34.6263636 73.1302731,35.6895682 72.4965066,36.3809773 C72.0095551,36.9251591 71.1724361,37.2252045 70.337141,37.2252045 C69.5574714,37.2252045 68.7787137,37.0733182 68.2251938,36.5906364 C67.6279031,36.0827955 67.344304,35.2395 67.344304,33.866 L67.344304,31.1395 C67.344304,29.9383864 67.3205947,29.7417727 66.6649427,29.684 L66.3840793,29.6616364 C66.3165991,29.6141136 66.3384846,29.4175 66.4050529,29.3830227 C66.9695154,29.40725 67.3543348,29.4175 67.8066344,29.4175 C68.2698767,29.4175 68.6437533,29.40725 69.1954493,29.3830227 C69.2647533,29.4175 69.2866388,29.6141136 69.2191586,29.6616364 L68.948326,29.684 C68.2935859,29.7417727 68.2698767,29.9383864 68.2698767,31.1395 L68.2698767,33.6349091 C68.2698767,35.4929545 68.8343392,36.7155 70.5632907,36.7155 C72.2019648,36.7155 72.8238767,35.4016364 72.8238767,33.6451591 L72.8238767,32.3173182" id="Fill-1" fill="#FFFFFF" sketch:type="MSShapeGroup"></path>
                            <path d="M87.5910925,35.0782955 C87.5910925,35.424 87.5910925,36.7975 87.6248326,37.0984773 C87.603859,37.1674318 87.535467,37.2252045 87.4105374,37.2252045 C87.2755771,37.0285909 86.948207,36.6251136 85.965185,35.4817727 L83.343489,32.4337955 C83.0370925,32.0750455 82.2692775,31.1283182 82.032185,30.8739318 L82.0093877,30.8739318 C81.9647048,31.0118409 81.9519383,31.2792727 81.9519383,31.6240455 L81.9519383,34.1408864 C81.9519383,34.6850682 81.9647048,36.1862273 82.1571145,36.5319318 C82.2236828,36.6595909 82.4507445,36.7276136 82.7343436,36.7509091 L83.0835991,36.78725 C83.1510793,36.8776364 83.1401366,37.0164773 83.058978,37.07425 C82.5528767,37.0528182 82.1571145,37.0388409 81.7385551,37.0388409 C81.2634581,37.0388409 80.9588855,37.0528182 80.5631233,37.07425 C80.4828767,37.0164773 80.4719339,36.8562045 80.540326,36.78725 L80.8448987,36.7509091 C81.1066123,36.7155 81.2862555,36.6465455 81.342793,36.5188864 C81.5005507,36.1060909 81.4896079,34.6953182 81.4896079,34.1408864 L81.4896079,30.8049773 C81.4896079,30.4807045 81.4786652,30.2384318 81.2415727,29.9719318 C81.0829031,29.8107273 80.8102467,29.7305909 80.540326,29.6961136 L80.3497401,29.6728182 C80.281348,29.6038636 80.281348,29.4305455 80.3707137,29.3830227 C80.8448987,29.4175 81.4440132,29.4175 81.6473656,29.4175 C81.8297445,29.4175 82.0203304,29.40725 82.1671454,29.3830227 C82.3932952,29.9719318 83.7283084,31.49825 84.1003612,31.9240909 L85.1955463,33.1829773 C85.9761278,34.0719318 86.5296476,34.7195455 87.0621938,35.2749091 L87.0831674,35.2749091 C87.129674,35.2162045 87.129674,35.0307727 87.129674,34.7885 L87.129674,32.3173182 C87.129674,31.775 87.1169075,30.2729091 86.9035242,29.9272045 C86.8360441,29.8219091 86.6545771,29.7529545 86.2022775,29.6961136 L86.0098678,29.6728182 C85.9314449,29.6038636 85.9414758,29.4175 86.0326652,29.3830227 C86.5524449,29.40725 86.9372643,29.4175 87.3667665,29.4175 C87.8509824,29.4175 88.1464361,29.40725 88.5294317,29.3830227 C88.6206211,29.4417273 88.6206211,29.6038636 88.553141,29.6728182 L88.3944714,29.6961136 C88.0324493,29.7529545 87.8062996,29.8452045 87.7616167,29.9383864 C87.5701189,30.3549091 87.5910925,31.78525 87.5910925,32.3173182 L87.5910925,35.0782955" id="Fill-2" fill="#FFFFFF" sketch:type="MSShapeGroup"></path>
                            <path d="M96.0078767,31.1739773 C96.0078767,29.9495682 95.9850793,29.7529545 95.3184846,29.6961136 L95.0357974,29.6728182 C94.9674053,29.6252955 94.9911145,29.4175 95.0585947,29.3830227 C95.6230573,29.4081818 96.0078767,29.4175 96.4829736,29.4175 C96.9343612,29.4175 97.3182687,29.4081818 97.8836432,29.3830227 C97.9511233,29.4175 97.9739207,29.6252955 97.9064405,29.6728182 L97.6246652,29.6961136 C96.9571586,29.7529545 96.9343612,29.9495682 96.9343612,31.1739773 L96.9343612,35.2851591 C96.9343612,36.5086364 96.9571586,36.6707727 97.6246652,36.7509091 L97.9064405,36.78725 C97.9739207,36.8319773 97.9511233,37.0397727 97.8836432,37.07425 C97.3182687,37.0528182 96.9343612,37.0397727 96.4829736,37.0397727 C96.0078767,37.0397727 95.6230573,37.0528182 95.0585947,37.07425 C94.9911145,37.0397727 94.9674053,36.8562045 95.0357974,36.78725 L95.3184846,36.7509091 C95.9850793,36.6707727 96.0078767,36.5086364 96.0078767,35.2851591 L96.0078767,31.1739773" id="Fill-3" fill="#FFFFFF" sketch:type="MSShapeGroup"></path>
                            <path d="M105.160559,30.6428409 C104.90067,29.9961591 104.731969,29.7529545 104.245018,29.6961136 L104.040753,29.6728182 C103.96233,29.6038636 103.973273,29.4417273 104.063551,29.3830227 C104.391833,29.40725 104.752943,29.4175 105.238982,29.4175 C105.735965,29.4175 106.131727,29.40725 106.606824,29.3830227 C106.685247,29.4305455 106.708956,29.6038636 106.630533,29.6728182 L106.459097,29.6961136 C106.029595,29.7529545 105.941141,29.8219091 105.928374,29.9150909 C105.951172,30.0315682 106.141758,30.6549545 106.492837,31.5327273 C107.013529,32.87175 107.533308,34.1986591 108.099595,35.51625 C108.44885,34.7540227 108.923947,33.5659545 109.183837,32.9528182 C109.510295,32.1682273 110.043753,30.86275 110.235251,30.3660909 C110.325529,30.1238182 110.336471,29.9961591 110.336471,29.9150909 C110.336471,29.8349545 110.222485,29.7417727 109.826722,29.6961136 L109.624282,29.6728182 C109.544035,29.6038636 109.566833,29.4305455 109.647079,29.3830227 C109.962595,29.40725 110.393921,29.4175 110.820687,29.4175 C111.194564,29.4175 111.545643,29.40725 111.917696,29.3830227 C111.996119,29.4305455 111.996119,29.6141136 111.941405,29.6728182 L111.603093,29.6961136 C111.330436,29.7184773 111.160824,29.85825 111.013097,30.1005227 C110.698493,30.6428409 110.256225,31.58025 109.749211,32.7552727 L109.138242,34.1753636 C108.685943,35.2395 108.154308,36.5775909 107.962811,37.1907273 C107.928159,37.2130909 107.884388,37.2252045 107.840617,37.2252045 C107.782256,37.2252045 107.72663,37.2130909 107.668269,37.1907273 C107.544251,36.70525 107.340899,36.1405682 107.148489,35.6550909 L105.160559,30.6428409" id="Fill-4" fill="#FFFFFF" sketch:type="MSShapeGroup"></path>
                            <path d="M118.764198,31.1525455 C118.764198,29.9495682 118.741401,29.77625 118.074806,29.6961136 L117.893339,29.6728182 C117.825859,29.6252955 117.848656,29.4175 117.917048,29.3830227 C118.404,29.40725 118.787907,29.4175 119.250238,29.4175 L121.375863,29.4175 C122.098996,29.4175 122.764678,29.4175 122.899639,29.3830227 C122.968031,29.5796364 123.035511,30.41175 123.082018,30.9214545 C123.035511,30.9904091 122.855868,31.0118409 122.798419,30.9428864 C122.629718,30.4005682 122.527586,29.9961591 121.940326,29.8452045 C121.703233,29.7874318 121.341211,29.77625 120.843317,29.77625 L120.028996,29.77625 C119.692507,29.77625 119.692507,29.8004773 119.692507,30.2384318 L119.692507,32.5484091 C119.692507,32.87175 119.726247,32.87175 120.062736,32.87175 L120.721123,32.87175 C121.193485,32.87175 121.544564,32.8484545 121.680436,32.8018636 C121.81722,32.7552727 121.895643,32.6853864 121.952181,32.3974545 L122.04337,31.9240909 C122.098996,31.8551364 122.28867,31.8551364 122.335176,31.9352727 C122.335176,32.2129545 122.28867,32.6648864 122.28867,33.1028409 C122.28867,33.5184318 122.335176,33.95825 122.335176,34.2098409 C122.28867,34.2918409 122.098996,34.2918409 122.04337,34.2228864 L121.940326,33.7728182 C121.895643,33.5659545 121.81722,33.3926364 121.59107,33.3339318 C121.432401,33.2873409 121.159744,33.2761591 120.721123,33.2761591 L120.062736,33.2761591 C119.726247,33.2761591 119.692507,33.2873409 119.692507,33.58925 L119.692507,35.2162045 C119.692507,35.8274773 119.726247,36.2197727 119.904066,36.4154545 C120.041762,36.5542955 120.277943,36.6810227 121.273731,36.6810227 C122.14459,36.6810227 122.471048,36.6353636 122.719996,36.5086364 C122.92426,36.3940227 123.228833,35.9896136 123.521551,35.3895227 C123.601797,35.3308182 123.761379,35.3643636 123.80515,35.4705909 C123.726727,35.875 123.443128,36.7620909 123.295401,37.0733182 C122.279551,37.0528182 121.273731,37.0397727 120.267912,37.0397727 L119.250238,37.0397727 C118.764198,37.0397727 118.379379,37.0528182 117.711872,37.0733182 C117.644392,37.0397727 117.622507,36.8562045 117.690899,36.78725 L118.062952,36.7509091 C118.708573,36.6940682 118.764198,36.5188864 118.764198,35.3093864 L118.764198,31.1525455" id="Fill-5" fill="#FFFFFF" sketch:type="MSShapeGroup"></path>
                            <path d="M131.939247,32.8139773 C131.939247,33.0217727 131.939247,33.1485 131.972987,33.1960227 C132.006727,33.2305 132.175427,33.2528636 132.750833,33.2528636 C133.158449,33.2528636 133.587952,33.2072045 133.915322,32.9518864 C134.219894,32.7105455 134.480696,32.3061364 134.480696,31.5215455 C134.480696,30.6083636 133.928088,29.7417727 132.670586,29.7417727 C131.972987,29.7417727 131.939247,29.7874318 131.939247,30.1117045 L131.939247,32.8139773 L131.939247,32.8139773 Z M131.010938,31.1627955 C131.010938,30.0660455 130.977198,29.8694318 130.513956,29.8107273 L130.152846,29.7650682 C130.074423,29.7072955 130.074423,29.5218636 130.1647,29.4762045 C130.795731,29.4165682 131.577225,29.3830227 132.683352,29.3830227 C133.384599,29.3830227 134.051194,29.4417273 134.570974,29.7305909 C135.111727,30.0185227 135.508401,30.5384773 135.508401,31.3491591 C135.508401,32.4440455 134.662163,33.0450682 134.0977,33.2761591 C134.040251,33.3451136 134.0977,33.4615909 134.152414,33.5547727 C135.055189,35.0428864 135.656128,35.9681818 136.424855,36.6251136 C136.617264,36.7975 136.900863,36.9251591 137.205436,36.9465909 C137.261974,36.9708182 137.271093,37.0630682 137.216379,37.1087273 C137.114247,37.1422727 136.93278,37.1674318 136.719396,37.1674318 C135.756436,37.1674318 135.180119,36.8776364 134.380388,35.7128636 C134.084934,35.2851591 133.621692,34.4884545 133.270612,33.9694318 C133.101912,33.7150455 132.920445,33.6004318 132.469969,33.6004318 C131.96022,33.6004318 131.939247,33.60975 131.939247,33.8548182 L131.939247,35.3093864 C131.939247,36.5188864 131.96022,36.6595909 132.617696,36.7509091 L132.852053,36.78725 C132.920445,36.8431591 132.898559,37.0397727 132.831079,37.07425 C132.323154,37.0528182 131.939247,37.0397727 131.486035,37.0397727 C131.010938,37.0397727 130.603322,37.0528182 130.074423,37.07425 C130.006031,37.0397727 129.982322,36.8673864 130.050714,36.78725 L130.332489,36.7509091 C130.988141,36.6707727 131.010938,36.5188864 131.010938,35.3093864 L131.010938,31.1627955 L131.010938,31.1627955 Z" id="Fill-6" fill="#FFFFFF" sketch:type="MSShapeGroup"></path>
                            <path d="M144.668379,37.2252045 C143.720009,37.2252045 143.119982,36.9251591 142.904775,36.7975 C142.768903,36.5431136 142.623,35.7240455 142.600203,35.1817273 C142.65674,35.0997273 142.825441,35.0782955 142.872859,35.14725 C143.041559,35.7370909 143.504802,36.8673864 144.816106,36.8673864 C145.765388,36.8673864 146.229542,36.23375 146.229542,35.5404773 C146.229542,35.0307727 146.126498,34.4642273 145.302145,33.9237727 L144.229758,33.2072045 C143.663471,32.8251591 143.007819,32.1682273 143.007819,31.2215 C143.007819,30.1238182 143.844938,29.2339318 145.313088,29.2339318 C145.663256,29.2339318 146.06996,29.3028864 146.365414,29.3830227 C146.510405,29.4305455 146.668163,29.4519773 146.758441,29.4519773 C146.860573,29.7305909 146.961793,30.3772727 146.961793,30.86275 C146.91711,30.9317045 146.735643,30.9661818 146.68093,30.8972273 C146.534115,30.3427955 146.229542,29.5908182 145.142564,29.5908182 C144.037348,29.5908182 143.798432,30.3427955 143.798432,30.8739318 C143.798432,31.5457727 144.340097,32.0275227 144.758656,32.2930909 L145.663256,32.87175 C146.376357,33.3218182 147.07578,33.9917955 147.07578,35.0885455 C147.07578,36.3595455 146.139264,37.2252045 144.668379,37.2252045" id="Fill-7" fill="#FFFFFF" sketch:type="MSShapeGroup"></path>
                            <path d="M154.757577,31.1739773 C154.757577,29.9495682 154.736604,29.7529545 154.068185,29.6961136 L153.785498,29.6728182 C153.717106,29.6252955 153.740815,29.4175 153.808295,29.3830227 C154.374581,29.4081818 154.757577,29.4175 155.232674,29.4175 C155.685885,29.4175 156.067969,29.4081818 156.635167,29.3830227 C156.702648,29.4175 156.725445,29.6252955 156.656141,29.6728182 L156.372542,29.6961136 C155.708683,29.7529545 155.685885,29.9495682 155.685885,31.1739773 L155.685885,35.2851591 C155.685885,36.5086364 155.708683,36.6707727 156.372542,36.7509091 L156.656141,36.78725 C156.725445,36.8319773 156.702648,37.0397727 156.635167,37.07425 C156.067969,37.0528182 155.685885,37.0397727 155.232674,37.0397727 C154.757577,37.0397727 154.374581,37.0528182 153.808295,37.07425 C153.740815,37.0397727 153.717106,36.8562045 153.785498,36.78725 L154.068185,36.7509091 C154.736604,36.6707727 154.757577,36.5086364 154.757577,35.2851591 L154.757577,31.1739773" id="Fill-8" fill="#FFFFFF" sketch:type="MSShapeGroup"></path>
                            <path d="M167.305242,35.3093864 C167.305242,36.5188864 167.326216,36.6940682 167.980044,36.7509091 L168.342978,36.78725 C168.41137,36.8319773 168.386749,37.0397727 168.320181,37.0751818 C167.675471,37.0528182 167.292476,37.0397727 166.840176,37.0397727 C166.387877,37.0397727 165.992115,37.0528182 165.267159,37.0751818 C165.199678,37.0397727 165.178705,36.8431591 165.267159,36.78725 L165.675687,36.7509091 C166.320396,36.6940682 166.376934,36.5188864 166.376934,35.3093864 L166.376934,30.1461818 C166.376934,29.7874318 166.376934,29.7771818 166.036797,29.7771818 L165.414885,29.7771818 C164.929758,29.7771818 164.30967,29.8004773 164.02607,30.0660455 C163.755238,30.3204318 163.641251,30.5738864 163.516322,30.8636818 C163.427868,30.9317045 163.267374,30.8739318 163.222692,30.7826136 C163.404159,30.2626591 163.573771,29.5218636 163.652194,29.0615455 C163.687758,29.0391818 163.833661,29.0261364 163.866489,29.0615455 C163.934881,29.4305455 164.30967,29.4175 164.829449,29.4175 L169.406247,29.4175 C170.015392,29.4175 170.117524,29.3960682 170.286225,29.0960227 C170.343674,29.0736591 170.467692,29.0848409 170.489577,29.1305 C170.363736,29.6038636 170.286225,30.5384773 170.319965,30.8869773 C170.276194,30.9773636 170.083784,30.9773636 170.026335,30.9084091 C169.992595,30.6204773 169.912348,30.1927727 169.745471,30.0660455 C169.48467,29.8694318 169.056079,29.7771818 168.432344,29.7771818 L167.630789,29.7771818 C167.292476,29.7771818 167.305242,29.7874318 167.305242,30.1694773 L167.305242,35.3093864" id="Fill-9" fill="#FFFFFF" sketch:type="MSShapeGroup"></path>
                            <path d="M180.183925,35.2851591 C180.183925,36.5188864 180.251405,36.70525 180.862374,36.7509091 L181.2937,36.78725 C181.359357,36.8562045 181.337471,37.0397727 181.269991,37.07425 C180.568744,37.0528182 180.183925,37.0397727 179.731626,37.0397727 C179.255617,37.0397727 178.851648,37.0528182 178.251621,37.07425 C178.183229,37.0397727 178.160432,36.8562045 178.227912,36.78725 L178.580815,36.7509091 C179.234643,36.6810227 179.255617,36.5188864 179.255617,35.2851591 L179.255617,34.6953182 C179.255617,34.06075 179.221877,33.9116591 178.89633,33.2649773 L177.562229,30.6083636 C177.17741,29.8452045 177.007797,29.7874318 176.669485,29.7305909 L176.353057,29.6728182 C176.284665,29.5908182 176.297432,29.4305455 176.375855,29.3830227 C176.736053,29.40725 177.14367,29.4175 177.686247,29.4175 C178.206938,29.4175 178.612731,29.40725 178.89633,29.3830227 C178.997551,29.4175 178.997551,29.6038636 178.93007,29.6728182 L178.784167,29.6961136 C178.388405,29.7538864 178.308159,29.8107273 178.308159,29.9039091 C178.308159,30.0185227 178.601789,30.6773182 178.659238,30.7937955 C179.075974,31.6473409 179.494533,32.5586591 179.936802,33.3581591 C180.285145,32.7450227 180.659022,32.0750455 180.997335,31.4050682 C181.314674,30.8049773 181.73141,30.0185227 181.73141,29.8796818 C181.73141,29.8107273 181.528057,29.7305909 181.258137,29.6961136 L181.054784,29.6728182 C180.976361,29.5908182 180.987304,29.4305455 181.077581,29.3830227 C181.482463,29.40725 181.811656,29.4175 182.160912,29.4175 C182.511991,29.4175 182.828419,29.40725 183.213238,29.3830227 C183.304427,29.4426591 183.314458,29.6038636 183.236035,29.6728182 L182.919608,29.7305909 C182.331436,29.8349545 181.9913,30.5627045 181.426837,31.5560227 L180.716471,32.8139773 C180.217665,33.6926818 180.183925,33.7970455 180.183925,34.6850682 L180.183925,35.2851591" id="Fill-10" fill="#FFFFFF" sketch:type="MSShapeGroup"></path>
                            <g id="Group-14" fill="#FFFFFF" sketch:type="MSShapeGroup">
                                <path d="M19.1962863,8.91004545 L19.1962863,8.61652273 C22.4499251,7.52815909 25.3880485,7.71918182 28.0416608,8.23168182 L26.7248855,4.41681818 L27.9605022,5.09145455 L29.7715242,9.72259091 C27.3540925,8.79077273 22.2721057,8.79077273 19.1962863,8.91004545 L19.1962863,8.91004545 Z M17.9533744,8.91004545 C15.0097797,8.79077273 9.92870485,8.79077273 7.38087225,9.72259091 L9.19189427,5.09145455 L10.4256872,4.41681818 L9.11529515,8.23168182 C11.7698194,7.71918182 14.7061189,7.52815909 17.9615815,8.61652273 L17.9533744,8.91004545 L17.9533744,8.91004545 Z M28.8486872,4.49788636 C28.8195066,4.44104545 27.0659339,3.55395455 27.0659339,3.55395455 C24.8363524,3.07593182 21.1614185,3.28559091 18.6008194,4.24815909 L18.5917004,4.24815909 C16.0283656,3.28559091 12.3579912,3.07593182 10.1274978,3.55395455 C10.1274978,3.55395455 8.37301322,4.44104545 8.34656828,4.49788636 L5.62912335,10.6255227 C5.5406696,10.7960455 5.68018943,10.9414091 5.83429956,10.9097273 C9.96518062,10.1083636 14.7088546,9.86143182 18.5944361,9.86143182 L18.5980837,9.86143182 C22.4827533,9.86143182 27.2273392,10.1083636 31.3573084,10.9097273 C31.5132423,10.9414091 31.6509383,10.7960455 31.5633965,10.6255227 L28.8486872,4.49788636 L28.8486872,4.49788636 Z" id="Fill-11"></path>
                                <path d="M35.7489912,7.28029545 C35.7489912,9.27904545 35.629533,11.1641136 35.4170617,12.9494773 C24.3995551,10.5714773 12.808467,10.5714773 1.77545815,12.9541364 C1.56207489,11.1669091 1.44444053,9.27997727 1.44444053,7.28029545 L1.44170485,4.23604545 C1.44170485,3.82325 1.72074449,3.47754545 2.09644493,3.38156818 L2.11650661,3.37597727 C7.43102643,2.214 12.9434273,1.59713636 18.595348,1.59713636 C24.2417974,1.59713636 29.7469031,2.21306818 35.0513921,3.37131818 L35.0650705,3.37597727 C35.457185,3.45704545 35.750815,3.81206818 35.750815,4.23604545 L35.7489912,7.28029545 L35.7489912,7.28029545 Z M19.3449251,16.3114773 L19.3449251,12.8674773 C20.4054581,12.8758636 21.4641674,12.90475 22.5192291,12.9569318 L22.5192291,18.4732955 L19.3449251,16.3114773 L19.3449251,16.3114773 Z M32.0521718,24.9559545 C32.050348,24.9596818 32.0476123,24.9680682 32.0448767,24.9727273 C31.0910352,26.9910455 30.0122643,28.7810682 28.8760441,30.35025 C28.8733084,30.3530455 28.8733084,30.3539773 28.8723965,30.3539773 C27.8373965,31.7833864 26.7650088,33.0394773 25.6971806,34.1231818 L25.6971806,28.1884318 L22.5192291,26.0284773 L22.5192291,36.9447273 C21.338326,37.8541818 20.251348,38.5586364 19.3449251,39.0683409 L19.3449251,23.8666591 L22.5192291,26.0284773 L22.5192291,18.4742273 L25.6971806,20.6323182 L25.6971806,13.1833636 C26.7577137,13.2793409 27.8173348,13.3911591 28.8723965,13.53 L28.8723965,22.7922727 L32.0448767,24.9503636 L32.0448767,14.0192045 C33.059815,14.19625 34.0711057,14.3863409 35.0769251,14.6025227 L35.1854405,14.62675 C34.5571454,18.6018864 33.4382511,22.0235227 32.0521718,24.9559545 L32.0521718,24.9559545 Z M17.8466828,39.0683409 C13.3574273,36.5356591 4.33788106,29.3541364 2.00799119,14.6314091 L2.11650661,14.6071818 C7.25138326,13.49925 12.54037,12.9177955 17.8466828,12.8674773 L17.8466828,39.0683409 L17.8466828,39.0683409 Z M35.4389471,2.20747727 L35.4207093,2.19909091 L35.3048987,2.173 C29.8353568,0.976545455 24.2144405,0.370863636 18.595348,0.370863636 C12.9753436,0.370863636 7.34622026,0.978409091 1.86573568,2.17579545 L1.81193392,2.18790909 L1.76177974,2.20468182 C0.885449339,2.42552273 0.241651982,3.26509091 0.241651982,4.23697727 L0.243475771,7.28029545 C0.243475771,29.2218182 13.5297753,38.1244091 17.603207,40.3290909 C17.9287533,40.5070682 18.2652423,40.5965227 18.6008194,40.5965227 C18.9391322,40.5965227 19.2747093,40.5070682 19.5975198,40.3262955 C23.658185,38.1281364 36.9499559,29.2218182 36.9499559,7.28029545 L36.9499559,4.23697727 C36.9499559,3.28838636 36.3243965,2.45627273 35.4389471,2.20747727 L35.4389471,2.20747727 Z" id="Fill-13"></path>
                            </g>
                            <path d="M28.8723965,22.7913409 L25.6971806,20.63325 L25.6971806,28.1875 L28.8723965,30.3465227 L28.8723965,22.7913409" id="Fill-15" fill="#FFFFFF" sketch:type="MSShapeGroup"></path>
                            <path d="M5.99296916,21.9871818 L8.03105286,21.9871818 C8.06479295,22.6571591 8.18151542,23.2693636 8.35295154,23.821 C7.70459471,23.9700909 7.16748899,24.1555227 6.73707489,24.3335 C6.31669163,23.6411591 6.05224229,22.8444545 5.99296916,21.9871818 L5.99296916,21.9871818 Z M6.73707489,18.8926136 C7.16748899,19.0705909 7.70459471,19.2550909 8.35477533,19.4051136 C8.18151542,19.9558182 8.06479295,20.5689545 8.03105286,21.2389318 L5.99296916,21.2389318 C6.05224229,20.3816591 6.31760352,19.5849545 6.73707489,18.8926136 L6.73707489,18.8926136 Z M10.0016564,16.5360455 C9.55300441,17.0317727 9.01681057,17.753 8.61192952,18.696 C8.05202643,18.5720682 7.57054626,18.4173864 7.17843172,18.2655 C7.89426872,17.4017045 8.87820264,16.77925 10.0016564,16.5360455 L10.0016564,16.5360455 Z M10.686489,18.9438636 C10.2150396,18.9298864 9.77550661,18.89075 9.36788987,18.8311136 C9.77185903,17.9645227 10.2916388,17.3094545 10.686489,16.8929318 L10.686489,18.9438636 L10.686489,18.9438636 Z M10.686489,21.2389318 L8.76603965,21.2389318 C8.80069163,20.6192727 8.9174141,20.0545909 9.08702643,19.5458182 C9.57397797,19.6250227 10.108348,19.6772045 10.686489,19.6939773 L10.686489,21.2389318 L10.686489,21.2389318 Z M10.686489,23.5321364 C10.108348,23.5498409 9.57397797,23.5992273 9.08702643,23.6784318 C8.9174141,23.1715227 8.80069163,22.6068409 8.76603965,21.9871818 L10.686489,21.9871818 L10.686489,23.5321364 L10.686489,23.5321364 Z M10.686489,26.3331818 C10.2916388,25.9147955 9.77185903,25.2606591 9.36788987,24.395 C9.77550661,24.3362955 10.2150396,24.2971591 10.686489,24.28225 L10.686489,26.3331818 L10.686489,26.3331818 Z M7.17751982,24.95875 C7.57054626,24.8068636 8.05202643,24.6540455 8.61192952,24.5301136 C9.01681057,25.4721818 9.55300441,26.1952727 10.0016564,26.6900682 C8.87729075,26.4468636 7.89335683,25.8244091 7.17751982,24.95875 L7.17751982,24.95875 Z M11.419652,24.28225 C11.893837,24.2971591 12.3342819,24.3362955 12.7418987,24.3959318 C12.3379295,25.2671818 11.8145022,25.9231818 11.419652,26.3369091 L11.419652,24.28225 L11.419652,24.28225 Z M11.419652,21.9871818 L13.3455727,21.9871818 C13.3090969,22.6068409 13.1932863,23.1715227 13.023674,23.6802955 C12.5367225,23.5992273 11.9987048,23.5498409 11.419652,23.5321364 L11.419652,21.9871818 L11.419652,21.9871818 Z M11.419652,19.6939773 C11.9987048,19.6772045 12.5376344,19.6250227 13.0273216,19.5458182 C13.1932863,20.0536591 13.3090969,20.6183409 13.3455727,21.2389318 L11.419652,21.2389318 L11.419652,19.6939773 L11.419652,19.6939773 Z M11.419652,16.8845455 C11.8154141,17.3001364 12.3406652,17.9561364 12.7464581,18.8301818 C12.3370176,18.89075 11.8947489,18.9298864 11.419652,18.9438636 L11.419652,16.8845455 L11.419652,16.8845455 Z M14.9304449,18.2664318 C14.5374185,18.41925 14.0577621,18.5720682 13.497859,18.696 C13.0938899,17.7539318 12.5595198,17.0336364 12.1117797,16.5379091 C13.2315859,16.7811136 14.2155198,17.4035682 14.9304449,18.2664318 L14.9304449,18.2664318 Z M15.369978,18.8926136 C15.7903612,19.5858864 16.0538987,20.3816591 16.1159075,21.2389318 L14.0796476,21.2389318 C14.0459075,20.5689545 13.9282731,19.9558182 13.756837,19.4051136 C14.4051938,19.2550909 14.9404758,19.0705909 15.369978,18.8926136 L15.369978,18.8926136 Z M15.369978,24.3335 C14.9404758,24.1555227 14.4024581,23.9700909 13.756837,23.8219318 C13.9282731,23.2693636 14.0459075,22.6590227 14.0796476,21.9871818 L16.1159075,21.9871818 C16.0538987,22.8444545 15.7903612,23.6411591 15.369978,24.3335 L15.369978,24.3335 Z M12.1117797,26.6882045 C12.5595198,26.1934091 13.0938899,25.47125 13.497859,24.5310455 C14.0577621,24.6540455 14.5374185,24.8068636 14.9304449,24.95875 C14.2155198,25.8234773 13.2315859,26.445 12.1117797,26.6882045 L12.1117797,26.6882045 Z M11.0539824,27.552 C14.2583789,27.552 16.8663965,24.8879318 16.8663965,21.6135227 C16.8663965,18.3381818 14.2583789,15.6741136 11.0539824,15.6741136 C7.8495859,15.6741136 5.24248018,18.3381818 5.24248018,21.6135227 C5.24248018,24.8879318 7.8495859,27.552 11.0539824,27.552 L11.0539824,27.552 Z" id="Fill-16" fill="#FFFFFF" sketch:type="MSShapeGroup"></path>
                            <g id="Group-19" transform="translate(41.947137, 3.727273)">
                                <mask id="mask-2" sketch:name="Clip 18" fill="white">
                                    <use xlink:href="#path-1"></use>
                                </mask>
                                <g id="Clip-18"></g>
                                <path d="M5.49233921,4.96472727 C5.49233921,2.02111364 5.23427313,1.70336364 3.70320264,1.57011364 L3.05575771,1.51793182 C2.89891189,1.41170455 2.95088987,0.934613636 3.10682379,0.855409091 C4.61144934,0.907590909 5.49233921,0.934613636 6.58205286,0.934613636 C7.62070044,0.934613636 8.5025022,0.907590909 9.54023789,0.855409091 C9.69525991,0.934613636 9.74723789,1.41170455 9.59312775,1.51793182 L9.202837,1.57011364 C7.67359031,1.7835 7.62070044,2.1525 7.62070044,4.96472727 L7.62070044,14.8000682 C7.62070044,16.8929318 7.5158326,18.7220909 7.02523348,19.9399773 C6.16714097,22.0635909 4.32693833,23.7595 1.91224229,23.7595 C1.60219824,23.7595 0.798819383,23.7324773 0.798819383,23.2013409 C0.798819383,22.7512727 1.18546256,21.9815909 1.73077533,21.9815909 C2.04264317,21.9815909 2.35542291,22.0337727 2.69191189,22.1418636 C3.05575771,22.2471591 3.41869163,22.3272955 3.78162555,22.3272955 C4.32693833,22.3272955 4.63789427,22.0086136 4.81936123,21.63775 C5.41665198,20.3909773 5.49233921,16.4158409 5.49233921,14.9836364 L5.49233921,4.96472727" id="Fill-17" fill="#FFFFFF" sketch:type="MSShapeGroup" mask="url(#mask-2)"></path>
                            </g>
                            <path d="M64.6815727,15.4038864 C64.6815727,11.7148182 63.0848458,7.73315909 58.9047225,7.73315909 C56.6277225,7.73315909 53.6740969,9.32190909 53.6740969,14.2195455 C53.6740969,17.5275 55.2498502,21.8231818 59.5594626,21.8231818 C62.1875419,21.8231818 64.6815727,19.8104545 64.6815727,15.4038864 M51.4846388,14.93425 C51.4846388,10.4624545 54.76837,7.03988636 59.2758634,7.03988636 C64.3314053,7.03988636 66.8701189,10.7746136 66.8701189,14.7106136 C66.8701189,19.2280682 63.4997577,22.5145909 59.2758634,22.5145909 C54.4182026,22.5145909 51.4846388,18.9597045 51.4846388,14.93425" id="Fill-20" fill="#FFFFFF" sketch:type="MSShapeGroup"></path>
                            <path d="M71.8417665,14.93425 C70.7912643,14.93425 70.7474934,14.9799091 70.7474934,15.65175 L70.7474934,18.8031591 C70.7474934,21.1513409 70.8569207,21.4644318 72.0825066,21.5986136 L72.7162731,21.6666364 C72.8484978,21.7551591 72.803815,22.1577045 72.6734141,22.2247955 C71.4906872,22.1791364 70.7474934,22.1577045 69.8930485,22.1577045 C68.9528855,22.1577045 68.2087797,22.2033636 67.3552467,22.2247955 C67.2239339,22.1577045 67.1810749,21.7989545 67.3105639,21.6666364 L67.6826167,21.5986136 C68.9082026,21.3749773 68.9528855,21.1513409 68.9528855,18.8031591 L68.9528855,10.75225 C68.9528855,8.40406818 68.7996872,8.02481818 67.6616432,7.93443182 L67.0917093,7.88970455 C66.9603965,7.80025 67.0050793,7.39770455 67.1363921,7.33061364 C68.2087797,7.35204545 68.9528855,7.39770455 69.8930485,7.39770455 C70.7474934,7.39770455 71.4906872,7.37627273 72.4317621,7.33061364 C72.5630749,7.39770455 72.6077577,7.80025 72.475533,7.88970455 L72.0597093,7.93443182 C70.7912643,8.06861364 70.7474934,8.40406818 70.7474934,10.75225 L70.7474934,13.325 C70.7474934,14.0173409 70.7912643,14.0406364 71.8417665,14.0406364 L78.1010088,14.0406364 C79.151511,14.0406364 79.1961938,14.0173409 79.1961938,13.325 L79.1961938,10.75225 C79.1961938,8.40406818 79.151511,8.06861364 77.8602687,7.93443182 L77.4453568,7.88970455 C77.3131322,7.80025 77.3559912,7.39770455 77.4882159,7.33061364 C78.4940352,7.37627273 79.2390529,7.39770455 80.1363568,7.39770455 C80.9898899,7.39770455 81.7339956,7.37627273 82.7188414,7.33061364 C82.8483304,7.39770455 82.8930132,7.80025 82.7635242,7.88970455 L82.3021057,7.93443182 C81.0345727,8.06861364 80.9898899,8.40406818 80.9898899,10.75225 L80.9898899,18.8031591 C80.9898899,21.1513409 81.0345727,21.4420682 82.3021057,21.5986136 L82.8273568,21.6666364 C82.9586696,21.7551591 82.9148987,22.1577045 82.782674,22.2247955 C81.7339956,22.1791364 80.9898899,22.1577045 80.1363568,22.1577045 C79.2390529,22.1577045 78.4520881,22.1791364 77.4882159,22.2247955 C77.3559912,22.1577045 77.3131322,21.7989545 77.4453568,21.6666364 L77.8602687,21.5986136 C79.1961938,21.3749773 79.1961938,21.1513409 79.1961938,18.8031591 L79.1961938,15.65175 C79.1961938,14.9799091 79.151511,14.93425 78.1010088,14.93425 L71.8417665,14.93425" id="Fill-21" fill="#FFFFFF" sketch:type="MSShapeGroup"></path>
                            <path d="M97.7778634,18.3558864 C97.7778634,19.0277273 97.7778634,21.6871364 97.8407841,22.2685909 C97.798837,22.4037045 97.6675242,22.5145909 97.4258722,22.5145909 C97.1650705,22.1362727 96.5285683,21.3535455 94.6254449,19.1386136 L89.5480176,13.2346136 C88.958022,12.5413409 87.4679868,10.7075227 87.009304,10.2173864 L86.9673568,10.2173864 C86.8770793,10.4848182 86.8561057,10.99825 86.8561057,11.6691591 L86.8561057,16.5453636 C86.8561057,17.5955227 86.8770793,20.5037273 87.2500441,21.1727727 C87.3822687,21.4206364 87.819978,21.5538864 88.3671145,21.5986136 L89.044652,21.6666364 C89.1759648,21.8436818 89.1540793,22.1129773 89.0008811,22.2247955 C88.0160352,22.1800682 87.2500441,22.1567727 86.4402819,22.1567727 C85.5210925,22.1567727 84.9310969,22.1800682 84.1641938,22.2247955 C84.0109956,22.1129773 83.990022,21.7989545 84.1204229,21.6666364 L84.7113304,21.5986136 C85.214696,21.5305909 85.5648634,21.3973409 85.6761145,21.1513409 C85.9797753,20.3471818 85.9588018,17.6188182 85.9588018,16.5453636 L85.9588018,10.0822727 C85.9588018,9.45515909 85.9378282,8.98459091 85.4782335,8.47209091 C85.1709251,8.159 84.6465859,8.00152273 84.1204229,7.93443182 L83.7474581,7.89063636 C83.6170573,7.75645455 83.6170573,7.42193182 83.7930529,7.33061364 C84.7113304,7.39770455 85.870348,7.39770455 86.2651982,7.39770455 C86.6153656,7.39770455 86.9883304,7.37627273 87.2728414,7.33061364 C87.7096388,8.47209091 90.2921233,11.4240909 91.0152555,12.2515455 L93.1381454,14.68825 C94.6464185,16.41025 95.7188062,17.6626136 96.7483348,18.7360682 L96.7930176,18.7360682 C96.8805595,18.6251818 96.8805595,18.2664318 96.8805595,17.7967955 L96.8805595,13.0109773 C96.8805595,11.9598864 96.858674,9.05354545 96.4419383,8.38170455 C96.3106256,8.18043182 95.9604581,8.04625 95.0841278,7.93443182 L94.7129868,7.89063636 C94.5597885,7.75645455 94.5825859,7.39770455 94.7567577,7.33061364 C95.763489,7.37627273 96.5075947,7.39770455 97.3401542,7.39770455 C98.2794053,7.39770455 98.8475154,7.37627273 99.5916211,7.33061364 C99.7694405,7.44336364 99.7694405,7.75645455 99.6372159,7.89063636 L99.3308194,7.93443182 C98.6313965,8.04625 98.1927753,8.22609091 98.1043216,8.40406818 C97.7331806,9.20915909 97.7778634,11.98225 97.7778634,13.0109773 L97.7778634,18.3558864" id="Fill-22" fill="#FFFFFF" sketch:type="MSShapeGroup"></path>
                            <path d="M103.562009,22.5145909 C101.721806,22.5145909 100.562789,21.9340682 100.147877,21.6871364 C99.8843392,21.1951364 99.5989163,19.60825 99.5560573,18.5580909 C99.6654846,18.3996818 99.9946784,18.3558864 100.08222,18.491 C100.40959,19.6296818 101.306894,21.8231818 103.845608,21.8231818 C105.683987,21.8231818 106.581291,20.59225 106.581291,19.2513636 C106.581291,18.2664318 106.385233,17.1715455 104.785771,16.1195227 L102.707564,14.7320455 C101.614203,13.9949773 100.344846,12.7193182 100.344846,10.8864318 C100.344846,8.76188636 101.96437,7.04081818 104.80948,7.04081818 C105.48793,7.04081818 106.274894,7.175 106.844828,7.33061364 C107.128427,7.42193182 107.433912,7.46572727 107.608996,7.46572727 C107.806877,8.00152273 108.003846,9.25481818 108.003846,10.1931591 C107.917216,10.3282727 107.566137,10.3944318 107.456709,10.2611818 C107.172198,9.18679545 106.581291,7.73315909 104.479374,7.73315909 C102.334599,7.73315909 101.875004,9.18679545 101.875004,10.2173864 C101.875004,11.5126136 102.92733,12.4518864 103.737093,12.9671818 L105.48793,14.0844318 C106.865802,14.9566136 108.223612,16.2537045 108.223612,18.37825 C108.223612,20.8373182 106.407119,22.5145909 103.562009,22.5145909" id="Fill-23" fill="#FFFFFF" sketch:type="MSShapeGroup"></path>
                            <path d="M120.723522,14.0134773 C119.478786,14.0134773 119.426808,14.0656591 119.426808,14.8605 L119.426808,18.5980227 C119.426808,21.3804318 119.555385,21.7522273 121.007121,21.9125 L121.762169,21.9926364 C121.916279,22.0988636 121.865213,22.5750227 121.708368,22.6523636 C120.30861,22.6011136 119.426808,22.5750227 118.415517,22.5750227 C117.298447,22.5750227 116.416645,22.6272045 115.405354,22.6523636 C115.248509,22.5750227 115.196531,22.1501136 115.353376,21.9926364 L115.793821,21.9125 C117.245557,21.646 117.298447,21.3804318 117.298447,18.5980227 L117.298447,9.05527273 C117.298447,6.271 117.11698,5.82 115.768288,5.71563636 L115.093486,5.66159091 C114.938464,5.55722727 114.990442,5.07827273 115.145464,5 C116.416645,5.02515909 117.298447,5.07827273 118.415517,5.07827273 C119.426808,5.07827273 120.30861,5.05311364 121.422945,5 C121.57979,5.07827273 121.631768,5.55722727 121.474923,5.66159091 L120.981588,5.71563636 C119.478786,5.87497727 119.426808,6.271 119.426808,9.05527273 L119.426808,12.1041818 C119.426808,12.9251136 119.478786,12.9502727 120.723522,12.9502727 L128.143605,12.9502727 C129.388341,12.9502727 129.439407,12.9251136 129.439407,12.1041818 L129.439407,9.05527273 C129.439407,6.271 129.388341,5.87497727 127.856359,5.71563636 L127.363024,5.66159091 C127.208002,5.55722727 127.25998,5.07827273 127.416826,5 C128.606848,5.05311364 129.491385,5.07827273 130.554654,5.07827273 C131.565945,5.07827273 132.44957,5.05311364 133.616795,5 C133.770905,5.07827273 133.824707,5.55722727 133.667861,5.66159091 L133.122548,5.71563636 C131.619746,5.87497727 131.565945,6.271 131.565945,9.05527273 L131.565945,18.5980227 C131.565945,21.3804318 131.619746,21.7261364 133.122548,21.9125 L133.746284,21.9926364 C133.901306,22.0988636 133.849328,22.5750227 133.692482,22.6523636 C132.44957,22.6011136 131.565945,22.5750227 130.554654,22.5750227 C129.491385,22.5750227 128.558517,22.6011136 127.416826,22.6523636 C127.25998,22.5750227 127.208002,22.1501136 127.363024,21.9926364 L127.856359,21.9125 C129.439407,21.646 129.439407,21.3804318 129.439407,18.5980227 L129.439407,14.8605 C129.439407,14.0656591 129.388341,14.0134773 128.143605,14.0134773 L120.723522,14.0134773" id="Fill-24" fill="#FFFFFF" sketch:type="MSShapeGroup"></path>
                            <path d="M147.267278,15.4038864 C147.267278,11.7148182 145.671463,7.73315909 141.489515,7.73315909 C139.215251,7.73315909 136.260714,9.32190909 136.260714,14.2195455 C136.260714,17.5275 137.836467,21.8231818 142.146991,21.8231818 C144.774159,21.8231818 147.267278,19.8104545 147.267278,15.4038864 M134.071256,14.93425 C134.071256,10.4624545 137.355899,7.03988636 141.861568,7.03988636 C146.918022,7.03988636 149.455824,10.7746136 149.455824,14.7106136 C149.455824,19.2280682 146.086374,22.5145909 141.861568,22.5145909 C137.004819,22.5145909 134.071256,18.9597045 134.071256,14.93425" id="Fill-25" fill="#FFFFFF" sketch:type="MSShapeGroup"></path>
                            <path d="M153.417093,18.8031591 C153.417093,21.1513409 153.461775,21.4420682 154.861533,21.5995455 L155.453352,21.6657045 C155.584665,21.7765909 155.541806,22.1577045 155.40867,22.2257273 C154.16211,22.1791364 153.440802,22.1577045 152.564471,22.1577045 C151.645282,22.1577045 150.858317,22.1791364 149.894445,22.2257273 C149.76222,22.1577045 149.720273,21.7998864 149.851586,21.6657045 L150.311181,21.5995455 C151.579626,21.4206364 151.623396,21.1513409 151.623396,18.8031591 L151.623396,10.5519091 C151.623396,8.65006818 151.579626,8.26988636 150.59478,8.15806818 L149.806903,8.06768182 C149.653705,7.93443182 149.674678,7.59897727 149.851586,7.50952273 C151.011515,7.35204545 152.368414,7.32968182 154.183084,7.32968182 C155.999577,7.32968182 157.357388,7.57568182 158.386004,8.22515909 C159.392736,8.87370455 160.136841,10.0366136 160.136841,11.5787727 C160.136841,13.6362273 158.890282,14.6668182 157.948295,15.1355227 C156.984423,15.6051591 155.825405,15.8055 154.927189,15.8055 C154.774903,15.7402727 154.774903,15.4038864 154.906216,15.3600909 C157.269846,14.9118864 158.122467,13.5467727 158.122467,11.6020682 C158.122467,9.43186364 156.875907,8.02481818 154.599819,8.02481818 C153.440802,8.02481818 153.417093,8.11240909 153.417093,8.82990909 L153.417093,18.8031591" id="Fill-26" fill="#FFFFFF" sketch:type="MSShapeGroup"></path>
                            <path d="M162.524181,10.75225 C162.524181,8.40406818 162.479498,8.04625 161.211053,7.93536364 L160.663004,7.89063636 C160.532604,7.80025 160.577286,7.39770455 160.706775,7.33061364 C161.779163,7.37627273 162.479498,7.39770455 163.464344,7.39770455 C164.316965,7.39770455 165.061982,7.37627273 166.003969,7.33061364 C166.13437,7.39770455 166.178141,7.80025 166.046828,7.89063636 L165.631916,7.93536364 C164.361648,8.06861364 164.316965,8.40406818 164.316965,10.75225 L164.316965,13.3259318 C164.316965,13.7489773 164.361648,14.1729545 164.604211,14.1729545 C164.800269,14.1729545 165.061982,14.0397045 165.215181,13.9278864 C165.521577,13.6604545 166.091511,13.0780682 166.331339,12.8535 L168.694969,10.4624545 C169.109881,10.0580455 170.184093,8.91843182 170.401123,8.60627273 C170.511463,8.44786364 170.556145,8.33697727 170.556145,8.24752273 C170.556145,8.15806818 170.468604,8.09190909 170.184093,8.02481818 L169.593185,7.89063636 C169.439987,7.73315909 169.46096,7.44336364 169.635132,7.33061364 C170.401123,7.37627273 171.277454,7.39770455 172.043445,7.39770455 C172.809436,7.39770455 173.553542,7.37627273 174.209194,7.33061364 C174.364216,7.44336364 174.385189,7.75645455 174.253877,7.89063636 C173.685767,7.93536364 172.832233,8.15806818 172.219441,8.51681818 C171.607559,8.87370455 170.38015,9.92386364 169.154564,11.111 L167.184872,13.0100455 C166.878476,13.3259318 166.680595,13.5262727 166.680595,13.70425 C166.680595,13.8626591 166.812819,14.0397045 167.09733,14.3975227 C169.175537,16.8332955 170.860718,18.8478864 172.568696,20.6807727 C173.093947,21.2184318 173.493357,21.5100909 174.235639,21.5995455 L174.657846,21.6666364 C174.812868,21.7765909 174.768185,22.1567727 174.613163,22.2257273 C174.045053,22.1800682 173.445026,22.1567727 172.415498,22.1567727 C171.520018,22.1567727 170.752203,22.1800682 169.745471,22.2257273 C169.593185,22.1800682 169.526617,21.7989545 169.658841,21.6666364 L170.161295,21.5743864 C170.468604,21.5305909 170.686546,21.4635 170.686546,21.3535455 C170.686546,21.2184318 170.533348,21.0404545 170.38015,20.8373182 C169.963414,20.3015227 169.395304,19.6977045 168.563656,18.7351364 L166.812819,16.7233409 C165.56626,15.293 165.215181,14.8457273 164.68993,14.8457273 C164.361648,14.8457273 164.316965,15.1364545 164.316965,15.9191818 L164.316965,18.8040909 C164.316965,21.1504091 164.361648,21.4635 165.587233,21.5995455 L166.178141,21.6666364 C166.308542,21.7560909 166.266595,22.1567727 166.13437,22.2257273 C165.061982,22.1800682 164.316965,22.1567727 163.464344,22.1567727 C162.566128,22.1567727 161.823846,22.1800682 160.926542,22.2257273 C160.795229,22.1567727 160.749634,21.8231818 160.881859,21.6666364 L161.319568,21.5995455 C162.479498,21.4197045 162.524181,21.1504091 162.524181,18.8040909 L162.524181,10.75225" id="Fill-27" fill="#FFFFFF" sketch:type="MSShapeGroup"></path>
                            <path d="M177.544903,10.7969773 C177.544903,8.42736364 177.502044,8.04531818 176.208978,7.93536364 L175.663665,7.88970455 C175.532352,7.80025 175.575211,7.39863636 175.707436,7.32968182 C176.800797,7.37627273 177.544903,7.39863636 178.464093,7.39863636 C179.340423,7.39863636 180.084529,7.37627273 181.178802,7.32968182 C181.310115,7.39863636 181.352974,7.80025 181.222573,7.88970455 L180.674524,7.93536364 C179.383282,8.04531818 179.340423,8.42736364 179.340423,10.7969773 L179.340423,18.7575 C179.340423,21.1299091 179.383282,21.443 180.674524,21.5995455 L181.222573,21.6657045 C181.352974,21.7560909 181.310115,22.1567727 181.178802,22.2257273 C180.084529,22.1800682 179.340423,22.1567727 178.464093,22.1567727 C177.544903,22.1567727 176.884692,22.1800682 175.790419,22.2257273 C175.659106,22.1567727 175.616247,21.7998864 175.748471,21.6657045 L176.208978,21.5995455 C177.502044,21.443 177.544903,21.1299091 177.544903,18.7575 L177.544903,10.7969773" id="Fill-28" fill="#FFFFFF" sketch:type="MSShapeGroup"></path>
                            <path d="M196.475828,18.3558864 C196.475828,19.0277273 196.475828,21.6871364 196.543308,22.2685909 C196.498626,22.4037045 196.367313,22.5145909 196.126573,22.5145909 C195.864859,22.1362727 195.229269,21.3535455 193.325233,19.1386136 L188.247806,13.2346136 C187.657811,12.5413409 186.168687,10.7075227 185.709093,10.2173864 L185.666233,10.2173864 C185.57778,10.4848182 185.555894,10.99825 185.555894,11.6691591 L185.555894,16.5453636 C185.555894,17.5955227 185.57778,20.5037273 185.949833,21.1727727 C186.082057,21.4206364 186.519767,21.5538864 187.066903,21.5986136 L187.745352,21.6666364 C187.874841,21.8436818 187.853868,22.1129773 187.70067,22.2247955 C186.715824,22.1800682 185.949833,22.1567727 185.140982,22.1567727 C184.221793,22.1567727 183.630885,22.1800682 182.864894,22.2247955 C182.711696,22.1129773 182.688899,21.7989545 182.820211,21.6666364 L183.412031,21.5986136 C183.914485,21.5305909 184.264652,21.3973409 184.374991,21.1513409 C184.681388,20.3471818 184.65859,17.6188182 184.65859,16.5453636 L184.65859,10.0822727 C184.65859,9.45515909 184.637617,8.98459091 184.178022,8.47209091 C183.871626,8.159 183.346374,8.00152273 182.820211,7.93443182 L182.448159,7.89063636 C182.316846,7.75645455 182.316846,7.42193182 182.492841,7.33061364 C183.412031,7.39770455 184.571048,7.39770455 184.964987,7.39770455 C185.316066,7.39770455 185.688119,7.37627273 185.97263,7.33061364 C186.411251,8.47209091 188.991912,11.4240909 189.71322,12.2515455 L191.837934,14.68825 C193.348031,16.41025 194.418595,17.6626136 195.448123,18.7360682 L195.492806,18.7360682 C195.580348,18.6251818 195.580348,18.2664318 195.580348,17.7967955 L195.580348,13.0109773 C195.580348,11.9598864 195.558463,9.05354545 195.141727,8.38170455 C195.010414,8.18043182 194.661159,8.04625 193.786652,7.93443182 L193.414599,7.89063636 C193.259577,7.75645455 193.282374,7.39770455 193.456546,7.33061364 C194.463278,7.37627273 195.207383,7.39770455 196.039031,7.39770455 C196.98193,7.39770455 197.55004,7.37627273 198.292322,7.33061364 C198.469229,7.44336364 198.469229,7.75645455 198.337004,7.89063636 L198.030608,7.93443182 C197.330273,8.04625 196.892564,8.22609091 196.805022,8.40406818 C196.432969,9.20915909 196.475828,11.98225 196.475828,13.0109773 L196.475828,18.3558864" id="Fill-29" fill="#FFFFFF" sketch:type="MSShapeGroup"></path>
                            <path d="M202.225322,22.5145909 C200.385119,22.5145909 199.226101,21.9340682 198.809366,21.6871364 C198.54674,21.1951364 198.262229,19.60825 198.217546,18.5580909 C198.327885,18.3996818 198.657991,18.3558864 198.742797,18.491 C199.072903,19.6296818 199.970207,21.8231818 202.508009,21.8231818 C204.346388,21.8231818 205.243692,20.59225 205.243692,19.2513636 C205.243692,18.2664318 205.045811,17.1715455 203.448172,16.1195227 L201.371789,14.7320455 C200.276604,13.9949773 199.006335,12.7193182 199.006335,10.8864318 C199.006335,8.76188636 200.625859,7.04081818 203.471881,7.04081818 C204.15033,7.04081818 204.937295,7.175 205.507229,7.33061364 C205.792652,7.42193182 206.097225,7.46572727 206.271396,7.46572727 C206.469278,8.00152273 206.667159,9.25481818 206.667159,10.1931591 C206.577793,10.3282727 206.228537,10.3944318 206.118198,10.2611818 C205.835511,9.18679545 205.243692,7.73315909 203.143599,7.73315909 C200.997912,7.73315909 200.538317,9.18679545 200.538317,10.2173864 C200.538317,11.5126136 201.588819,12.4518864 202.39767,12.9671818 L204.15033,14.0844318 C205.529115,14.9566136 206.886013,16.2537045 206.886013,18.37825 C206.886013,20.8373182 205.06952,22.5145909 202.225322,22.5145909" id="Fill-30" fill="#FFFFFF" sketch:type="MSShapeGroup"></path>
                        </g>
                    </g>
                </g>
            </g>
        </g>
    </g>
</svg>