<?xml version="1.0" encoding="UTF-8" standalone="no"?>
<svg width="52px" height="102px" viewBox="0 0 52 102" version="1.1" xmlns="http://www.w3.org/2000/svg" xmlns:xlink="http://www.w3.org/1999/xlink" xmlns:sketch="http://www.bohemiancoding.com/sketch/ns">
    <!-- Generator: Sketch Beta 3.2.2 (9983) - http://www.bohemiancoding.com/sketch -->
    <title>icon-bulb-flourescent</title>
    <desc>Created with Sketch Beta.</desc>
    <defs></defs>
    <g id="Option-1" stroke="none" stroke-width="1" fill="none" fill-rule="evenodd" sketch:type="MSPage">
        <g id="Public-Homepage---Alternate-Color---01" sketch:type="MSArtboardGroup" transform="translate(-170.000000, -271.000000)" fill="#68ACE5">
            <g id="pages/homepage-02-color-01" sketch:type="MSLayerGroup" transform="translate(-1.000000, 0.000000)">
                <g id="Billboard" sketch:type="MSShapeGroup">
                    <g id="Promo" transform="translate(171.000000, 257.000000)">
                        <path d="M5.03841382,29.8776356 C5.50923553,29.8776356 5.98811925,29.809371 6.46216576,29.6656979 L27.4225999,23.3159002 C29.9758402,22.5423671 31.4088634,19.8772699 30.6228169,17.3633866 C29.8367704,14.8495033 27.131158,13.4385695 24.5775146,14.2121025 L3.61748359,20.5622971 C1.06384018,21.3354333 -0.369183075,24.0005306 0.416863436,26.5144138 C1.05658437,28.5615578 2.97050685,29.8776356 5.03841382,29.8776356 Z M5.03841382,44.1655734 C5.50923553,44.1655734 5.98811925,44.0973088 6.46216576,43.9532387 L48.3822278,31.2532465 C50.9358712,30.4801103 52.3688944,27.8146162 51.5828479,25.3011298 C50.7976076,22.7872465 48.0915921,21.3763127 45.5375456,22.1494489 L3.61748359,34.849838 C1.06384018,35.6229741 -0.369183075,38.2884683 0.416863436,40.8023516 C1.05658437,42.8490987 2.97050685,44.1655734 5.03841382,44.1655734 Z M45.787065,50.6558691 L32.8882433,53.8309664 C30.735282,54.3612076 29.2248634,56.266266 29.2248634,58.4519236 L29.2248634,67.9764216 L6.65122003,67.9764216 C4.8703208,67.9764216 3.42641382,69.3980714 3.42641382,71.1515189 L3.42641382,87.0270053 C3.42641382,92.2790131 7.76659987,96.5522971 13.1008324,96.5522971 L13.1008324,106.077589 C13.1008324,109.578927 15.9938867,112.427783 19.5500417,112.427783 L21.1628479,112.427783 C21.1628479,114.181231 22.6067549,115.602881 24.3876541,115.602881 L27.6124603,115.602881 C29.3933596,115.602881 30.8372665,114.181231 30.8372665,112.427783 L32.4492665,112.427783 C36.0054216,112.427783 38.899282,109.578927 38.899282,106.077589 L38.899282,96.5522971 C44.2339177,96.5522971 48.5737006,92.2790131 48.5737006,87.0270053 L48.5737006,71.1515189 C48.5737006,69.3980714 47.1297937,67.9764216 45.3488944,67.9764216 L38.899282,67.9764216 L38.899282,62.1699625 L48.1339177,59.8965928 C50.7254526,59.2587952 52.3007704,56.6730753 51.6525844,54.1210909 C51.0043983,51.5691064 48.3798092,50.0188652 45.787065,50.6558691 Z M35.6744758,106.077589 C35.6744758,107.823892 34.2225068,109.252686 32.4492665,109.252686 L19.5500417,109.252686 C17.7768014,109.252686 16.3256386,107.823892 16.3256386,106.077589 L16.3256386,96.5522971 L35.6744758,96.5522971 L35.6744758,106.077589 L35.6744758,106.077589 Z M45.3488944,71.1515189 L45.3488944,87.0270053 C45.3488944,90.5196123 42.4465689,93.3771998 38.899282,93.3771998 L13.1008324,93.3771998 C9.55354561,93.3771998 6.65122003,90.5196123 6.65122003,87.0270053 L6.65122003,71.1515189 L45.3488944,71.1515189 Z M45.5379487,36.4369897 L3.61788669,49.1369819 C1.72815026,49.7092932 0.38259987,51.3563749 0.219344056,53.2959625 C0.0560882424,55.23555 1.10858437,57.0779002 2.87698747,57.9486706 L15.7754061,64.2984683 C16.4699487,64.640585 17.2076231,64.802515 17.9348169,64.802515 C19.7088634,64.802515 21.4172045,63.8376823 22.2645224,62.1687718 C23.459313,59.8160247 22.491065,56.955659 20.1014836,55.7792854 L18.0009255,54.7449975 L48.3822278,45.5407874 C50.9358712,44.7676512 52.3688944,42.102157 51.5828479,39.5886706 C50.7980107,37.0747874 48.0919952,35.6634566 45.5379487,36.4369897 Z" id="icon-bulb-flourescent"></path>
                    </g>
                </g>
            </g>
        </g>
    </g>
</svg>