<?xml version="1.0" encoding="UTF-8" standalone="no"?>
<svg width="207px" height="40px" viewBox="0 0 207 40" version="1.1" xmlns="http://www.w3.org/2000/svg" xmlns:xlink="http://www.w3.org/1999/xlink" xmlns:sketch="http://www.bohemiancoding.com/sketch/ns">
    <!-- Generator: Sketch Beta 3.2.2 (9983) - http://www.bohemiancoding.com/sketch -->
    <title>logo-jhu-horizontal-blue</title>
    <desc>Created with Sketch Beta.</desc>
    <defs>
        <path id="path-1" d="M0.794407895,39.4272727 L37.3380789,39.4272727 L37.3380789,0.00272727273 L0.794407895,0.00272727273"></path>
        <path id="path-3" d="M0.794407895,23.1790909 L164.215461,23.1790909 L164.215461,0.833636364 L0.794407895,0.833636364"></path>
    </defs>
    <g id="Option-1" stroke="none" stroke-width="1" fill="none" fill-rule="evenodd" sketch:type="MSPage">
        <g id="Public-Interior" sketch:type="MSArtboardGroup" transform="translate(-15.000000, -24.000000)">
            <g id="pages/interior" sketch:type="MSLayerGroup">
                <g id="components/header">
                    <g id="modules/logo/jhu-horizon-white" transform="translate(15.000000, 24.000000)">
                        <g id="logo-jhu-horizontal-blue">
                            <path d="M73.4123684,31.5290909 C73.4123684,30.8309091 73.3896711,29.5345455 73.1999211,29.1972727 C73.1209342,29.0609091 72.9175658,28.9827273 72.6361184,28.96 L72.3555789,28.9381818 C72.2893026,28.8572727 72.3101842,28.7127273 72.3764605,28.6663636 C72.8058947,28.69 73.2208026,28.7 73.6602237,28.7 C74.1323289,28.7 74.4355658,28.69 74.8423026,28.6663636 C74.9321842,28.7236364 74.9203816,28.8690909 74.865,28.9381818 L74.5944474,28.96 C74.3139079,28.9827273 74.0987368,29.0836364 74.0315526,29.2309091 C73.8763026,29.6027273 73.8763026,30.8963636 73.8763026,31.5290909 L73.8763026,32.8036364 C73.8763026,33.7818182 73.7174211,34.8190909 73.0864342,35.4936364 C72.6016184,36.0245455 71.7681711,36.3172727 70.9365395,36.3172727 C70.1602895,36.3172727 69.3849474,36.1690909 68.8338553,35.6981818 C68.2391842,35.2027273 67.9568289,34.38 67.9568289,33.04 L67.9568289,30.38 C67.9568289,29.2081818 67.9332237,29.0163636 67.2804474,28.96 L67.0008158,28.9381818 C66.9336316,28.8918182 66.9554211,28.7 67.0216974,28.6663636 C67.5836842,28.69 67.9668158,28.7 68.4171316,28.7 C68.8783421,28.7 69.2505789,28.69 69.7998553,28.6663636 C69.8688553,28.7 69.8906447,28.8918182 69.8234605,28.9381818 L69.5538158,28.96 C68.9019474,29.0163636 68.8783421,29.2081818 68.8783421,30.38 L68.8783421,32.8145455 C68.8783421,34.6272727 69.4403289,35.82 71.1616974,35.82 C72.7931842,35.82 73.4123684,34.5381818 73.4123684,32.8245455 L73.4123684,31.5290909" id="Fill-1" fill="#212F57" sketch:type="MSShapeGroup"></path>
                            <path d="M88.1148158,34.2227273 C88.1148158,34.56 88.1148158,35.9 88.1484079,36.1936364 C88.1275263,36.2609091 88.0594342,36.3172727 87.9350526,36.3172727 C87.8006842,36.1254545 87.47475,35.7318182 86.4960395,34.6163636 L83.8858421,31.6427273 C83.5807895,31.2927273 82.8163421,30.3690909 82.5802895,30.1209091 L82.5575921,30.1209091 C82.5131053,30.2554545 82.5003947,30.5163636 82.5003947,30.8527273 L82.5003947,33.3081818 C82.5003947,33.8390909 82.5131053,35.3036364 82.7046711,35.6409091 C82.7709474,35.7654545 82.9970132,35.8318182 83.2793684,35.8545455 L83.6270921,35.89 C83.6942763,35.9781818 83.6833816,36.1136364 83.6025789,36.17 C83.0986974,36.1490909 82.7046711,36.1354545 82.2879474,36.1354545 C81.8149342,36.1354545 81.5116974,36.1490909 81.1176711,36.17 C81.0377763,36.1136364 81.0268816,35.9572727 81.0949737,35.89 L81.3982105,35.8545455 C81.6587763,35.82 81.8376316,35.7527273 81.8939211,35.6281818 C82.0509868,35.2254545 82.0400921,33.8490909 82.0400921,33.3081818 L82.0400921,30.0536364 C82.0400921,29.7372727 82.0291974,29.5009091 81.7931447,29.2409091 C81.6351711,29.0836364 81.3637105,29.0054545 81.0949737,28.9718182 L80.9052237,28.9490909 C80.8371316,28.8818182 80.8371316,28.7127273 80.9261053,28.6663636 C81.3982105,28.7 81.9946974,28.7 82.1971579,28.7 C82.3787368,28.7 82.5684868,28.69 82.7146579,28.6663636 C82.9398158,29.2409091 84.2689737,30.73 84.6393947,31.1454545 L85.7297763,32.3736364 C86.5069342,33.2409091 87.0580263,33.8727273 87.5882368,34.4145455 L87.6091184,34.4145455 C87.6554211,34.3572727 87.6554211,34.1763636 87.6554211,33.94 L87.6554211,31.5290909 C87.6554211,31 87.6427105,29.5345455 87.4302632,29.1972727 C87.3630789,29.0945455 87.1824079,29.0272727 86.7320921,28.9718182 L86.5405263,28.9490909 C86.4624474,28.8818182 86.4724342,28.7 86.5632237,28.6663636 C87.0807237,28.69 87.4638553,28.7 87.8914737,28.7 C88.3735658,28.7 88.6677237,28.69 89.0490395,28.6663636 C89.1398289,28.7236364 89.1398289,28.8818182 89.0726447,28.9490909 L88.9146711,28.9718182 C88.5542368,29.0272727 88.3290789,29.1172727 88.2845921,29.2081818 C88.0939342,29.6145455 88.1148158,31.01 88.1148158,31.5290909 L88.1148158,34.2227273" id="Fill-2" fill="#212F57" sketch:type="MSShapeGroup"></path>
                            <path d="M96.4946842,30.4136364 C96.4946842,29.2190909 96.4719868,29.0272727 95.8083158,28.9718182 L95.5268684,28.9490909 C95.4587763,28.9027273 95.4823816,28.7 95.5495658,28.6663636 C96.1115526,28.6909091 96.4946842,28.7 96.9676974,28.7 C97.4171053,28.7 97.7993289,28.6909091 98.3622237,28.6663636 C98.4294079,28.7 98.4521053,28.9027273 98.3849211,28.9490909 L98.1043816,28.9718182 C97.4398026,29.0272727 97.4171053,29.2190909 97.4171053,30.4136364 L97.4171053,34.4245455 C97.4171053,35.6181818 97.4398026,35.7763636 98.1043816,35.8545455 L98.3849211,35.89 C98.4521053,35.9336364 98.4294079,36.1363636 98.3622237,36.17 C97.7993289,36.1490909 97.4171053,36.1363636 96.9676974,36.1363636 C96.4946842,36.1363636 96.1115526,36.1490909 95.5495658,36.17 C95.4823816,36.1363636 95.4587763,35.9572727 95.5268684,35.89 L95.8083158,35.8545455 C96.4719868,35.7763636 96.4946842,35.6181818 96.4946842,34.4245455 L96.4946842,30.4136364" id="Fill-3" fill="#212F57" sketch:type="MSShapeGroup"></path>
                            <path d="M105.607224,29.8954545 C105.348474,29.2645455 105.180513,29.0272727 104.695697,28.9718182 L104.492329,28.9490909 C104.41425,28.8818182 104.425145,28.7236364 104.515026,28.6663636 C104.841868,28.69 105.201395,28.7 105.685303,28.7 C106.180105,28.7 106.574132,28.69 107.047145,28.6663636 C107.125224,28.7127273 107.148829,28.8818182 107.07075,28.9490909 L106.900066,28.9718182 C106.472447,29.0272727 106.384382,29.0945455 106.371671,29.1854545 C106.394368,29.2990909 106.584118,29.9072727 106.933658,30.7636364 C107.452066,32.07 107.969566,33.3645455 108.533368,34.65 C108.881092,33.9063636 109.354105,32.7472727 109.612855,32.1490909 C109.937882,31.3836364 110.469,30.11 110.659658,29.6254545 C110.749539,29.3890909 110.760434,29.2645455 110.760434,29.1854545 C110.760434,29.1072727 110.646947,29.0163636 110.252921,28.9718182 L110.051368,28.9490909 C109.971474,28.8818182 109.994171,28.7127273 110.074066,28.6663636 C110.388197,28.69 110.817632,28.7 111.242526,28.7 C111.614763,28.7 111.964303,28.69 112.334724,28.6663636 C112.412803,28.7127273 112.412803,28.8918182 112.358329,28.9490909 L112.0215,28.9718182 C111.750039,28.9936364 111.581171,29.13 111.434092,29.3663636 C111.120868,29.8954545 110.680539,30.81 110.17575,31.9563636 L109.567461,33.3418182 C109.117145,34.38 108.587842,35.6854545 108.397184,36.2836364 C108.362684,36.3054545 108.319105,36.3172727 108.275526,36.3172727 C108.217421,36.3172727 108.162039,36.3054545 108.103934,36.2836364 C107.980461,35.81 107.778,35.2590909 107.586434,34.7854545 L105.607224,29.8954545" id="Fill-4" fill="#212F57" sketch:type="MSShapeGroup"></path>
                            <path d="M119.151197,30.3927273 C119.151197,29.2190909 119.1285,29.05 118.464829,28.9718182 L118.284158,28.9490909 C118.216974,28.9027273 118.239671,28.7 118.307763,28.6663636 C118.792579,28.69 119.174803,28.7 119.635105,28.7 L121.751408,28.7 C122.471368,28.7 123.134132,28.7 123.2685,28.6663636 C123.336592,28.8581818 123.403776,29.67 123.450079,30.1672727 C123.403776,30.2345455 123.224921,30.2554545 123.167724,30.1881818 C122.999763,29.6590909 122.898079,29.2645455 122.313395,29.1172727 C122.077342,29.0609091 121.716908,29.05 121.221197,29.05 L120.410447,29.05 C120.075434,29.05 120.075434,29.0736364 120.075434,29.5009091 L120.075434,31.7545455 C120.075434,32.07 120.109026,32.07 120.444039,32.07 L121.099539,32.07 C121.569829,32.07 121.919368,32.0472727 122.054645,32.0018182 C122.190829,31.9563636 122.268908,31.8881818 122.325197,31.6072727 L122.415987,31.1454545 C122.471368,31.0781818 122.660211,31.0781818 122.706513,31.1563636 C122.706513,31.4272727 122.660211,31.8681818 122.660211,32.2954545 C122.660211,32.7009091 122.706513,33.13 122.706513,33.3754545 C122.660211,33.4554545 122.471368,33.4554545 122.415987,33.3881818 L122.313395,32.9490909 C122.268908,32.7472727 122.190829,32.5781818 121.965671,32.5209091 C121.807697,32.4754545 121.536237,32.4645455 121.099539,32.4645455 L120.444039,32.4645455 C120.109026,32.4645455 120.075434,32.4754545 120.075434,32.77 L120.075434,34.3572727 C120.075434,34.9536364 120.109026,35.3363636 120.286066,35.5272727 C120.423158,35.6627273 120.658303,35.7863636 121.649724,35.7863636 C122.516763,35.7863636 122.841789,35.7418182 123.089645,35.6181818 C123.293013,35.5063636 123.59625,35.1118182 123.887684,34.5263636 C123.967579,34.4690909 124.126461,34.5018182 124.170039,34.6054545 C124.091961,35 123.809605,35.8654545 123.662526,36.1690909 C122.651132,36.1490909 121.649724,36.1363636 120.648316,36.1363636 L119.635105,36.1363636 C119.151197,36.1363636 118.768066,36.1490909 118.103487,36.1690909 C118.036303,36.1363636 118.014513,35.9572727 118.082605,35.89 L118.453026,35.8545455 C119.095816,35.7990909 119.151197,35.6281818 119.151197,34.4481818 L119.151197,30.3927273" id="Fill-5" fill="#212F57" sketch:type="MSShapeGroup"></path>
                            <path d="M132.268461,32.0136364 C132.268461,32.2163636 132.268461,32.34 132.302053,32.3863636 C132.335645,32.42 132.503605,32.4418182 133.076487,32.4418182 C133.482316,32.4418182 133.909934,32.3972727 134.235868,32.1481818 C134.539105,31.9127273 134.798763,31.5181818 134.798763,30.7527273 C134.798763,29.8618182 134.248579,29.0163636 132.996592,29.0163636 C132.302053,29.0163636 132.268461,29.0609091 132.268461,29.3772727 L132.268461,32.0136364 L132.268461,32.0136364 Z M131.344224,30.4027273 C131.344224,29.3327273 131.310632,29.1409091 130.849421,29.0836364 L130.489895,29.0390909 C130.411816,28.9827273 130.411816,28.8018182 130.501697,28.7572727 C131.129961,28.6990909 131.908026,28.6663636 133.009303,28.6663636 C133.707474,28.6663636 134.371145,28.7236364 134.888645,29.0054545 C135.427026,29.2863636 135.821961,29.7936364 135.821961,30.5845455 C135.821961,31.6527273 134.979434,32.2390909 134.417447,32.4645455 C134.36025,32.5318182 134.417447,32.6454545 134.471921,32.7363636 C135.370737,34.1881818 135.969039,35.0909091 136.734395,35.7318182 C136.925961,35.9 137.208316,36.0245455 137.511553,36.0454545 C137.567842,36.0690909 137.576921,36.1590909 137.522447,36.2036364 C137.420763,36.2363636 137.240092,36.2609091 137.027645,36.2609091 C136.068908,36.2609091 135.495118,35.9781818 134.698895,34.8418182 C134.404737,34.4245455 133.943526,33.6472727 133.593987,33.1409091 C133.426026,32.8927273 133.245355,32.7809091 132.796855,32.7809091 C132.289342,32.7809091 132.268461,32.79 132.268461,33.0290909 L132.268461,34.4481818 C132.268461,35.6281818 132.289342,35.7654545 132.943934,35.8545455 L133.177263,35.89 C133.245355,35.9445455 133.223566,36.1363636 133.156382,36.17 C132.650684,36.1490909 132.268461,36.1363636 131.817237,36.1363636 C131.344224,36.1363636 130.938395,36.1490909 130.411816,36.17 C130.343724,36.1363636 130.320118,35.9681818 130.388211,35.89 L130.66875,35.8545455 C131.321526,35.7763636 131.344224,35.6281818 131.344224,34.4481818 L131.344224,30.4027273 L131.344224,30.4027273 Z" id="Fill-6" fill="#212F57" sketch:type="MSShapeGroup"></path>
                            <path d="M144.941763,36.3172727 C143.997553,36.3172727 143.400158,36.0245455 143.185895,35.9 C143.050618,35.6518182 142.905355,34.8527273 142.882658,34.3236364 C142.938947,34.2436364 143.106908,34.2227273 143.154118,34.29 C143.322079,34.8654545 143.783289,35.9681818 145.088842,35.9681818 C146.033961,35.9681818 146.496079,35.35 146.496079,34.6736364 C146.496079,34.1763636 146.393487,33.6236364 145.57275,33.0963636 L144.505066,32.3972727 C143.941263,32.0245455 143.288487,31.3836364 143.288487,30.46 C143.288487,29.3890909 144.121934,28.5209091 145.583645,28.5209091 C145.932276,28.5209091 146.337197,28.5881818 146.631355,28.6663636 C146.775711,28.7127273 146.932776,28.7336364 147.022658,28.7336364 C147.124342,29.0054545 147.225118,29.6363636 147.225118,30.11 C147.180632,30.1772727 146.999961,30.2109091 146.945487,30.1436364 C146.799316,29.6027273 146.496079,28.8690909 145.413868,28.8690909 C144.3135,28.8690909 144.075632,29.6027273 144.075632,30.1209091 C144.075632,30.7763636 144.614921,31.2463636 145.031645,31.5054545 L145.932276,32.07 C146.64225,32.5090909 147.338605,33.1627273 147.338605,34.2327273 C147.338605,35.4727273 146.406197,36.3172727 144.941763,36.3172727" id="Fill-7" fill="#212F57" sketch:type="MSShapeGroup"></path>
                            <path d="M154.986711,30.4136364 C154.986711,29.2190909 154.965829,29.0272727 154.300342,28.9718182 L154.018895,28.9490909 C153.950803,28.9027273 153.974408,28.7 154.041592,28.6663636 C154.605395,28.6909091 154.986711,28.7 155.459724,28.7 C155.910947,28.7 156.291355,28.6909091 156.856066,28.6663636 C156.92325,28.7 156.945947,28.9027273 156.876947,28.9490909 L156.594592,28.9718182 C155.933645,29.0272727 155.910947,29.2190909 155.910947,30.4136364 L155.910947,34.4245455 C155.910947,35.6181818 155.933645,35.7763636 156.594592,35.8545455 L156.876947,35.89 C156.945947,35.9336364 156.92325,36.1363636 156.856066,36.17 C156.291355,36.1490909 155.910947,36.1363636 155.459724,36.1363636 C154.986711,36.1363636 154.605395,36.1490909 154.041592,36.17 C153.974408,36.1363636 153.950803,35.9572727 154.018895,35.89 L154.300342,35.8545455 C154.965829,35.7763636 154.986711,35.6181818 154.986711,34.4245455 L154.986711,30.4136364" id="Fill-8" fill="#212F57" sketch:type="MSShapeGroup"></path>
                            <path d="M167.479342,34.4481818 C167.479342,35.6281818 167.500224,35.7990909 168.151184,35.8545455 L168.512526,35.89 C168.580618,35.9336364 168.556105,36.1363636 168.489829,36.1709091 C167.847947,36.1490909 167.466632,36.1363636 167.016316,36.1363636 C166.566,36.1363636 166.171974,36.1490909 165.450197,36.1709091 C165.383013,36.1363636 165.362132,35.9445455 165.450197,35.89 L165.856934,35.8545455 C166.498816,35.7990909 166.555105,35.6281818 166.555105,34.4481818 L166.555105,29.4109091 C166.555105,29.0609091 166.555105,29.0509091 166.216461,29.0509091 L165.597276,29.0509091 C165.114276,29.0509091 164.496908,29.0736364 164.214553,29.3327273 C163.944908,29.5809091 163.831421,29.8281818 163.707039,30.1109091 C163.618974,30.1772727 163.459184,30.1209091 163.414697,30.0318182 C163.595368,29.5245455 163.764237,28.8018182 163.842316,28.3527273 C163.877724,28.3309091 164.022987,28.3181818 164.055671,28.3527273 C164.123763,28.7127273 164.496908,28.7 165.014408,28.7 L169.571132,28.7 C170.177605,28.7 170.279289,28.6790909 170.44725,28.3863636 C170.504447,28.3645455 170.627921,28.3754545 170.649711,28.42 C170.524421,28.8818182 170.44725,29.7936364 170.480842,30.1336364 C170.437263,30.2218182 170.245697,30.2218182 170.1885,30.1545455 C170.154908,29.8736364 170.075013,29.4563636 169.908868,29.3327273 C169.649211,29.1409091 169.2225,29.0509091 168.6015,29.0509091 L167.803461,29.0509091 C167.466632,29.0509091 167.479342,29.0609091 167.479342,29.4336364 L167.479342,34.4481818" id="Fill-9" fill="#212F57" sketch:type="MSShapeGroup"></path>
                            <path d="M180.301539,34.4245455 C180.301539,35.6281818 180.368724,35.81 180.977013,35.8545455 L181.406447,35.89 C181.471816,35.9572727 181.450026,36.1363636 181.382842,36.17 C180.684671,36.1490909 180.301539,36.1363636 179.851224,36.1363636 C179.377303,36.1363636 178.975105,36.1490909 178.377711,36.17 C178.309618,36.1363636 178.286921,35.9572727 178.354105,35.89 L178.705461,35.8545455 C179.356421,35.7863636 179.377303,35.6281818 179.377303,34.4245455 L179.377303,33.8490909 C179.377303,33.23 179.343711,33.0845455 179.019592,32.4536364 L177.691342,29.8618182 C177.308211,29.1172727 177.139342,29.0609091 176.802513,29.0054545 L176.487474,28.9490909 C176.419382,28.8690909 176.432092,28.7127273 176.510171,28.6663636 C176.868789,28.69 177.274618,28.7 177.814816,28.7 C178.333224,28.7 178.737237,28.69 179.019592,28.6663636 C179.120368,28.7 179.120368,28.8818182 179.053184,28.9490909 L178.907921,28.9718182 C178.513895,29.0281818 178.434,29.0836364 178.434,29.1745455 C178.434,29.2863636 178.726342,29.9290909 178.783539,30.0427273 C179.198447,30.8754545 179.615171,31.7645455 180.0555,32.5445455 C180.402316,31.9463636 180.774553,31.2927273 181.111382,30.6390909 C181.427329,30.0536364 181.842237,29.2863636 181.842237,29.1509091 C181.842237,29.0836364 181.639776,29.0054545 181.371039,28.9718182 L181.168579,28.9490909 C181.0905,28.8690909 181.101395,28.7127273 181.191276,28.6663636 C181.594382,28.69 181.922132,28.7 182.269855,28.7 C182.619395,28.7 182.934434,28.69 183.317566,28.6663636 C183.408355,28.7245455 183.418342,28.8818182 183.340263,28.9490909 L183.025224,29.0054545 C182.439632,29.1072727 182.100987,29.8172727 181.539,30.7863636 L180.83175,32.0136364 C180.335132,32.8709091 180.301539,32.9727273 180.301539,33.8390909 L180.301539,34.4245455" id="Fill-10" fill="#212F57" sketch:type="MSShapeGroup"></path>
                            <path d="M19.8629211,39.1109091 C20.8261974,38.5781818 21.9873947,37.8445455 23.2448289,36.8945455 L23.2448289,25.5009091 L19.8629211,23.2481818 L19.8629211,39.1109091" id="Fill-11" fill="#212F57" sketch:type="MSShapeGroup"></path>
                            <path d="M19.8629211,15.36 L23.2448289,17.6145455 L23.2448289,11.8572727 C22.1190395,11.8045455 20.9914342,11.7745455 19.8629211,11.7654545 L19.8629211,15.36" id="Fill-12" fill="#212F57" sketch:type="MSShapeGroup"></path>
                            <path d="M30.0113684,12.4554545 C28.8873947,12.3118182 27.7597895,12.1936364 26.6276447,12.0945455 L26.6276447,19.8690909 L30.0113684,22.1236364 L30.0113684,12.4554545" id="Fill-13" fill="#212F57" sketch:type="MSShapeGroup"></path>
                            <path d="M26.6285526,27.7554545 L26.6285526,33.9527273 C27.7661447,32.82 28.911,31.5090909 30.0122763,30.02 L30.0122763,30.01 L26.6285526,27.7554545" id="Fill-14" fill="#212F57" sketch:type="MSShapeGroup"></path>
                            <path d="M30.0113684,30.02 C30.0131842,30.0181818 30.0140921,30.0163636 30.0159079,30.0109091 L30.0113684,30.0090909 L30.0113684,30.02" id="Fill-15" fill="#212F57" sketch:type="MSShapeGroup"></path>
                            <path d="M33.3905526,12.9663636 L33.3905526,24.3772727 L33.4005395,24.3827273 C34.8758684,21.3227273 36.0661184,17.7518182 36.7361447,13.5990909 L36.6208421,13.5763636 C35.5513421,13.3518182 34.4727632,13.1509091 33.3905526,12.9663636" id="Fill-16" fill="#212F57" sketch:type="MSShapeGroup"></path>
                            <path d="M23.2466447,17.6163636 L23.2466447,25.5027273 L26.6285526,27.7554545 L26.6285526,19.8690909 L23.2466447,17.6163636" id="Fill-17" fill="#212F57" sketch:type="MSShapeGroup"></path>
                            <path d="M30.0113684,22.1236364 L30.0113684,30.0090909 L30.0159079,30.0109091 C31.2252237,28.3736364 32.3746184,26.5072727 33.3905526,24.4 L33.3905526,24.3772727 L30.0113684,22.1236364" id="Fill-18" fill="#212F57" sketch:type="MSShapeGroup"></path>
                            <path d="M33.3905526,24.4 C33.3950921,24.3945455 33.3978158,24.3872727 33.4005395,24.3818182 L33.3905526,24.3772727 L33.3905526,24.4" id="Fill-19" fill="#212F57" sketch:type="MSShapeGroup"></path>
                            <path d="M12.4417895,26.0154545 C13.4404737,25.7390909 14.3184079,25.1809091 14.99025,24.4281818 C14.6216447,24.2954545 14.1913026,24.1618182 13.6937763,24.0518182 C13.3260789,24.87 12.8630526,25.5236364 12.4417895,26.0154545" id="Fill-20" fill="#212F57" sketch:type="MSShapeGroup"></path>
                            <path d="M7.07522368,24.43 C7.74706579,25.1827273 8.62772368,25.7418182 9.62731579,26.0172727 C9.20605263,25.5236364 8.74211842,24.87 8.37351316,24.05 C7.87507895,24.1618182 7.44473684,24.2963636 7.07522368,24.43" id="Fill-21" fill="#212F57" sketch:type="MSShapeGroup"></path>
                            <path d="M10.5424737,16.2154545 C10.1756842,16.62 9.74443421,17.19 9.38581579,17.91 C9.74806579,17.9581818 10.1339211,17.9918182 10.5424737,18.0063636 L10.5424737,16.2154545" id="Fill-22" fill="#212F57" sketch:type="MSShapeGroup"></path>
                            <path d="M14.0351447,23.1281818 C14.64525,23.2727273 15.1654737,23.4436364 15.5894605,23.6118182 C15.9871184,22.9454545 16.2467763,22.1936364 16.3212237,21.3818182 L14.3483684,21.3818182 C14.3084211,22.0136364 14.19675,22.5972727 14.0351447,23.1281818" id="Fill-23" fill="#212F57" sketch:type="MSShapeGroup"></path>
                            <path d="M9.62731579,15.7690909 C8.62681579,16.0445455 7.74797368,16.6045455 7.07522368,17.3572727 C7.44564474,17.4909091 7.87507895,17.6236364 8.37351316,17.7345455 C8.74121053,16.9163636 9.20605263,16.2618182 9.62731579,15.7690909" id="Fill-24" fill="#212F57" sketch:type="MSShapeGroup"></path>
                            <path d="M14.99025,17.3572727 C14.3193158,16.6054545 13.4404737,16.0463636 12.4417895,15.7709091 C12.8630526,16.2636364 13.3278947,16.9181818 13.6946842,17.7345455 C14.1922105,17.6236364 14.6225526,17.49 14.99025,17.3572727" id="Fill-25" fill="#212F57" sketch:type="MSShapeGroup"></path>
                            <path d="M14.3483684,20.4045455 L16.3212237,20.4045455 C16.2467763,19.5945455 15.9880263,18.84 15.5894605,18.1754545 C15.1654737,18.3427273 14.6461579,18.5136364 14.0351447,18.6572727 C14.19675,19.1881818 14.3084211,19.7727273 14.3483684,20.4045455" id="Fill-26" fill="#212F57" sketch:type="MSShapeGroup"></path>
                            <path d="M11.5184605,25.5754545 C11.8879737,25.1718182 12.3228553,24.6018182 12.6832895,23.8772727 C12.3183158,23.8281818 11.9306447,23.7945455 11.5184605,23.7781818 L11.5184605,25.5754545" id="Fill-27" fill="#212F57" sketch:type="MSShapeGroup"></path>
                            <path d="M10.5424737,21.3818182 L8.69763158,21.3818182 C8.74030263,21.9481818 8.85106579,22.4681818 9.00540789,22.9418182 C9.47842105,22.87 9.99047368,22.8218182 10.5424737,22.8018182 L10.5424737,21.3818182" id="Fill-28" fill="#212F57" sketch:type="MSShapeGroup"></path>
                            <path d="M11.5184605,22.8018182 C12.0722763,22.8218182 12.5897763,22.8690909 13.0636974,22.9418182 C13.2180395,22.4681818 13.3297105,21.9490909 13.3714737,21.3827273 L11.5184605,21.3827273 L11.5184605,22.8018182" id="Fill-29" fill="#212F57" sketch:type="MSShapeGroup"></path>
                            <path d="M12.6869211,17.91 C12.3264868,17.1818182 11.8897895,16.6090909 11.5184605,16.2054545 L11.5184605,18.0063636 C11.9324605,17.9927273 12.3228553,17.9581818 12.6869211,17.91" id="Fill-30" fill="#212F57" sketch:type="MSShapeGroup"></path>
                            <path d="M13.3714737,20.4045455 C13.3297105,19.8381818 13.2198553,19.3172727 13.0655132,18.8436364 C12.5906842,18.9154545 12.0740921,18.9654545 11.5184605,18.9854545 L11.5184605,20.4045455 L13.3714737,20.4045455" id="Fill-31" fill="#212F57" sketch:type="MSShapeGroup"></path>
                            <path d="M9.38581579,23.8763636 C9.74534211,24.5936364 10.1747763,25.1636364 10.5424737,25.57 L10.5424737,23.7790909 C10.1330132,23.7963636 9.74806579,23.8281818 9.38581579,23.8763636" id="Fill-32" fill="#212F57" sketch:type="MSShapeGroup"></path>
                            <path d="M8.03305263,18.6572727 C7.42022368,18.5136364 6.90090789,18.3427273 6.47419737,18.1754545 C6.07926316,18.84 5.81960526,19.5945455 5.74425,20.4045455 L7.71982895,20.4045455 C7.75977632,19.7727273 7.87144737,19.1890909 8.03305263,18.6572727" id="Fill-33" fill="#212F57" sketch:type="MSShapeGroup"></path>
                            <path d="M10.5424737,18.9845455 C9.99047368,18.9654545 9.47842105,18.9154545 9.00540789,18.8436364 C8.85106579,19.3172727 8.74030263,19.8372727 8.69763158,20.4045455 L10.5424737,20.4045455 L10.5424737,18.9845455" id="Fill-34" fill="#212F57" sketch:type="MSShapeGroup"></path>
                            <path d="M7.71982895,21.3818182 L5.74425,21.3818182 C5.81960526,22.1936364 6.07835526,22.9463636 6.47419737,23.6118182 C6.90090789,23.4436364 7.42022368,23.2727273 8.03305263,23.1272727 C7.87144737,22.5972727 7.75977632,22.0136364 7.71982895,21.3818182" id="Fill-35" fill="#212F57" sketch:type="MSShapeGroup"></path>
                            <g id="Group-39">
                                <mask id="mask-2" sketch:name="Clip 37" fill="white">
                                    <use xlink:href="#path-1"></use>
                                </mask>
                                <g id="Clip-37"></g>
                                <path d="M11.0309211,14.5963636 C14.4999868,14.5963636 17.3217237,17.4209091 17.3217237,20.8927273 C17.3217237,24.3627273 14.4999868,27.19 11.0309211,27.19 C7.56457895,27.19 4.74375,24.3627273 4.74375,20.8927273 C4.74375,17.4209091 7.56457895,14.5963636 11.0309211,14.5963636 M1.39634211,13.6054545 C3.87852632,28.9709091 13.4858684,36.4690909 18.2704737,39.1109091 L18.2704737,11.7654545 C12.6151974,11.8181818 6.97989474,12.4245455 1.51346053,13.58 L1.39634211,13.6054545" id="Fill-36" fill="#212F57" sketch:type="MSShapeGroup" mask="url(#mask-2)"></path>
                                <path d="M32.6578816,9.72 C28.2591316,8.88454545 23.2057895,8.62818182 19.0676053,8.62818182 L19.0639737,8.62818182 C14.9257895,8.62818182 9.87153947,8.88454545 5.47460526,9.72 C5.30846053,9.75454545 5.16138158,9.60272727 5.25307895,9.42636364 L8.14653947,3.03 C8.17559211,2.97090909 10.0449474,2.04454545 10.0449474,2.04454545 C12.4209079,1.54454545 16.3321184,1.76363636 19.06125,2.76909091 L19.0712368,2.76909091 C21.8003684,1.76363636 25.7106711,1.54454545 28.0866316,2.04454545 C28.0866316,2.04454545 29.9550789,2.97090909 29.9850395,3.03 L32.8766842,9.42636364 C32.9701974,9.60272727 32.8240263,9.75454545 32.6578816,9.72 M36.6090395,1.85818182 L36.5963289,1.85272727 C30.9410526,0.644545455 25.0778684,0.00181818182 19.0657895,0.00181818182 C13.0446316,0.00181818182 7.17418421,0.645454545 1.51436842,1.85818182 L1.48985526,1.86454545 C1.09038158,1.96454545 0.794407895,2.32545455 0.794407895,2.75727273 L0.796223684,5.93272727 C0.796223684,8.01909091 0.922421053,9.98818182 1.15030263,11.8563636 C7.02801316,10.61 13.0555263,9.98818182 19.0821316,9.98818182 C25.1014737,9.98818182 31.1199079,10.61 36.984,11.8509091 C37.2091579,9.98636364 37.3362632,8.01727273 37.3362632,5.93272727 L37.3371711,2.75727273 C37.3371711,2.31363636 37.0248553,1.94454545 36.6090395,1.85818182" id="Fill-38" fill="#212F57" sketch:type="MSShapeGroup" mask="url(#mask-2)"></path>
                            </g>
                            <path d="M27.3339868,3.14090909 L28.5505658,6.40272727 C25.7161184,6.01272727 23.3673947,6.19 19.9001447,7.32727273 L19.9001447,7.63272727 C23.1767368,7.50909091 27.3203684,7.32636364 30.6705,8.04727273 L28.8447237,3.84272727 L27.3339868,3.14090909" id="Fill-40" fill="#212F57" sketch:type="MSShapeGroup"></path>
                            <path d="M9.54288158,6.40272727 L10.7594605,3.14090909 L9.24963158,3.84363636 L7.42385526,8.04818182 C10.7721711,7.32636364 14.9167105,7.50909091 18.1923947,7.63363636 L18.1923947,7.32818182 C14.7260526,6.19 12.3764211,6.01272727 9.54288158,6.40272727" id="Fill-41" fill="#212F57" sketch:type="MSShapeGroup"></path>
                            <g id="Group-44" transform="translate(42.671053, 3.636364)">
                                <mask id="mask-4" sketch:name="Clip 43" fill="white">
                                    <use xlink:href="#path-3"></use>
                                </mask>
                                <g id="Clip-43"></g>
                                <path d="M5.46825,4.84363636 C5.46825,1.97181818 5.21131579,1.66181818 3.68696053,1.53181818 L3.04235526,1.48090909 C2.88619737,1.37727273 2.93794737,0.911818182 3.09319737,0.834545455 C4.59122368,0.885454545 5.46825,0.911818182 6.55318421,0.911818182 C7.58727632,0.911818182 8.46521053,0.885454545 9.49748684,0.834545455 C9.65273684,0.911818182 9.70539474,1.37727273 9.55105263,1.48090909 L9.16247368,1.53181818 C7.63993421,1.74 7.58727632,2.1 7.58727632,4.84363636 L7.58727632,14.4390909 C7.58727632,16.4809091 7.48286842,18.2654545 6.99442105,19.4536364 C6.14009211,21.5254545 4.30796053,23.18 1.90385526,23.18 C1.59517105,23.18 0.795315789,23.1536364 0.795315789,22.6354545 C0.795315789,22.1963636 1.18026316,21.4454545 1.72318421,21.4454545 C2.03368421,21.4454545 2.34509211,21.4963636 2.68010526,21.6018182 C3.04235526,21.7045455 3.40369737,21.7827273 3.76503947,21.7827273 C4.30796053,21.7827273 4.61755263,21.4718182 4.79822368,21.11 C5.39289474,19.8936364 5.46825,16.0154545 5.46825,14.6181818 L5.46825,4.84363636" id="Fill-42" fill="#212F57" sketch:type="MSShapeGroup" mask="url(#mask-4)"></path>
                            </g>
                            <path d="M65.3057763,15.0281818 C65.3057763,11.4290909 63.7151447,7.54454545 59.5533553,7.54454545 C57.28725,7.54454545 54.3465789,9.09454545 54.3465789,13.8727273 C54.3465789,17.1 55.9145132,21.2909091 60.2079474,21.2909091 C62.8226842,21.2909091 65.3057763,19.3272727 65.3057763,15.0281818 M52.1667237,14.57 C52.1667237,10.2072727 55.4360526,6.86818182 59.9237763,6.86818182 C64.9571447,6.86818182 67.4847237,10.5118182 67.4847237,14.3518182 C67.4847237,18.7590909 64.1300526,21.9654545 59.9237763,21.9654545 C55.0865132,21.9654545 52.1667237,18.4972727 52.1667237,14.57" id="Fill-45" fill="#212F57" sketch:type="MSShapeGroup"></path>
                            <path d="M72.4345658,14.57 C71.3895789,14.57 71.3450921,14.6145455 71.3450921,15.27 L71.3450921,18.3445455 C71.3450921,20.6354545 71.4540395,20.9409091 72.6733421,21.0718182 L73.3061447,21.1381818 C73.4368816,21.2245455 73.3933026,21.6172727 73.2625658,21.6827273 C72.0859342,21.6381818 71.3450921,21.6172727 70.4943947,21.6172727 C69.5583553,21.6172727 68.8166053,21.6618182 67.9668158,21.6827273 C67.8369868,21.6172727 67.7934079,21.2672727 67.9241447,21.1381818 L68.2945658,21.0718182 C69.5138684,20.8536364 69.5583553,20.6354545 69.5583553,18.3445455 L69.5583553,10.49 C69.5583553,8.19909091 69.4058289,7.82909091 68.2727763,7.74090909 L67.70625,7.69727273 C67.5746053,7.61 67.6190921,7.21727273 67.7489211,7.15181818 C68.8166053,7.17272727 69.5583553,7.21727273 70.4943947,7.21727273 C71.3450921,7.21727273 72.0859342,7.19636364 73.0219737,7.15181818 C73.1536184,7.21727273 73.1981053,7.61 73.0655526,7.69727273 L72.6515526,7.74090909 C71.3895789,7.87181818 71.3450921,8.19909091 71.3450921,10.49 L71.3450921,13 C71.3450921,13.6754545 71.3895789,13.6981818 72.4345658,13.6981818 L78.6663553,13.6981818 C79.71225,13.6981818 79.7549211,13.6754545 79.7549211,13 L79.7549211,10.49 C79.7549211,8.19909091 79.71225,7.87181818 78.4266711,7.74090909 L78.0126711,7.69727273 C77.8819342,7.61 77.9255132,7.21727273 78.05625,7.15181818 C79.0585658,7.19636364 79.7985,7.21727273 80.6918684,7.21727273 C81.5425658,7.21727273 82.2834079,7.19636364 83.2639342,7.15181818 C83.3937632,7.21727273 83.43825,7.61 83.3075132,7.69727273 L82.8499342,7.74090909 C81.5861447,7.87181818 81.5425658,8.19909091 81.5425658,10.49 L81.5425658,18.3445455 C81.5425658,20.6354545 81.5861447,20.9190909 82.8499342,21.0718182 L83.3728816,21.1381818 C83.5027105,21.2245455 83.4600395,21.6172727 83.3283947,21.6827273 C82.2834079,21.6381818 81.5425658,21.6172727 80.6918684,21.6172727 C79.7985,21.6172727 79.0149868,21.6381818 78.05625,21.6827273 C77.9255132,21.6172727 77.8819342,21.2672727 78.0126711,21.1381818 L78.4266711,21.0718182 C79.7549211,20.8536364 79.7549211,20.6354545 79.7549211,18.3445455 L79.7549211,15.27 C79.7549211,14.6145455 79.71225,14.57 78.6663553,14.57 L72.4345658,14.57" id="Fill-46" fill="#212F57" sketch:type="MSShapeGroup"></path>
                            <path d="M98.256,17.9081818 C98.256,18.5636364 98.256,21.1581818 98.3204605,21.7254545 C98.2786974,21.8572727 98.1470526,21.9654545 97.9082763,21.9654545 C97.6458947,21.5963636 97.014,20.8327273 95.1192237,18.6718182 L90.0640658,12.9118182 C89.4748421,12.2354545 87.9931579,10.4463636 87.5364868,9.96818182 L87.4929079,9.96818182 C87.4048421,10.2290909 87.3839605,10.73 87.3839605,11.3845455 L87.3839605,16.1418182 C87.3839605,17.1663636 87.4048421,20.0036364 87.7761711,20.6563636 C87.9078158,20.8981818 88.3426974,21.0281818 88.8874342,21.0718182 L89.5610921,21.1381818 C89.6927368,21.3109091 89.6718553,21.5736364 89.5193289,21.6827273 C88.5388026,21.6390909 87.7761711,21.6163636 86.9690526,21.6163636 C86.0548026,21.6163636 85.4655789,21.6390909 84.7020395,21.6827273 C84.5504211,21.5736364 84.5286316,21.2672727 84.6602763,21.1381818 L85.2476842,21.0718182 C85.74975,21.0054545 86.0983816,20.8754545 86.2073289,20.6354545 C86.5114737,19.8509091 86.4905921,17.1890909 86.4905921,16.1418182 L86.4905921,9.83636364 C86.4905921,9.22454545 86.4697105,8.76545455 86.0112237,8.26545455 C85.7052632,7.96 85.1841316,7.80636364 84.6602763,7.74090909 L84.2889474,7.69818182 C84.1591184,7.56727273 84.1591184,7.24090909 84.3334342,7.15181818 C85.2476842,7.21727273 86.4025263,7.21727273 86.7956447,7.21727273 C87.1433684,7.21727273 87.5146974,7.19636364 87.7970526,7.15181818 C88.23375,8.26545455 90.8049079,11.1454545 91.5239605,11.9527273 L93.6366316,14.33 C95.1401053,16.01 96.2077895,17.2318182 97.2328026,18.2790909 L97.2754737,18.2790909 C97.3635395,18.1709091 97.3635395,17.8209091 97.3635395,17.3627273 L97.3635395,12.6936364 C97.3635395,11.6681818 97.3408421,8.83272727 96.92775,8.17727273 C96.7970132,7.98090909 96.4465658,7.85 95.5758947,7.74090909 L95.2063816,7.69818182 C95.0538553,7.56727273 95.0747368,7.21727273 95.2490526,7.15181818 C96.2522763,7.19636364 96.9931184,7.21727273 97.8211184,7.21727273 C98.7571579,7.21727273 99.3227763,7.19636364 100.064526,7.15181818 C100.238842,7.26181818 100.238842,7.56727273 100.109013,7.69818182 L99.8039605,7.74090909 C99.1066974,7.85 98.67,8.02545455 98.5819342,8.19909091 C98.2133289,8.98454545 98.256,11.69 98.256,12.6936364 L98.256,17.9081818" id="Fill-47" fill="#212F57" sketch:type="MSShapeGroup"></path>
                            <path d="M104.014776,21.9654545 C102.184461,21.9654545 101.030526,21.3990909 100.615618,21.1581818 C100.355961,20.6781818 100.071789,19.13 100.026395,18.1054545 C100.137158,17.9509091 100.463092,17.9081818 100.55025,18.04 C100.877092,19.1509091 101.769553,21.2909091 104.298039,21.2909091 C106.129263,21.2909091 107.023539,20.09 107.023539,18.7818182 C107.023539,17.8209091 106.826526,16.7527273 105.234987,15.7263636 L103.164987,14.3727273 C102.077329,13.6536364 100.813539,12.4090909 100.813539,10.6209091 C100.813539,8.54818182 102.424145,6.86909091 105.257684,6.86909091 C105.933158,6.86909091 106.717579,7 107.284105,7.15181818 C107.566461,7.24090909 107.871513,7.28363636 108.045829,7.28363636 C108.241934,7.80636364 108.438039,9.02909091 108.438039,9.94454545 C108.351789,10.0763636 108.00225,10.1409091 107.893303,10.0109091 C107.610039,8.96272727 107.023539,7.54454545 104.929934,7.54454545 C102.795474,7.54454545 102.336987,8.96272727 102.336987,9.96818182 C102.336987,11.2318182 103.384697,12.1481818 104.19,12.6509091 L105.933158,13.7409091 C107.305895,14.5918182 108.656842,15.8572727 108.656842,17.93 C108.656842,20.3290909 106.848316,21.9654545 104.014776,21.9654545" id="Fill-48" fill="#212F57" sketch:type="MSShapeGroup"></path>
                            <path d="M121.588895,13.2645455 C120.349618,13.2645455 120.297868,13.3154545 120.297868,14.0909091 L120.297868,17.7372727 C120.297868,20.4518182 120.426789,20.8145455 121.872158,20.9709091 L122.622987,21.0490909 C122.776421,21.1527273 122.726487,21.6172727 122.570329,21.6927273 C121.175803,21.6427273 120.297868,21.6172727 119.291013,21.6172727 C118.17975,21.6172727 117.300908,21.6681818 116.294053,21.6927273 C116.138803,21.6172727 116.087053,21.2027273 116.242303,21.0490909 L116.681724,20.9709091 C118.126184,20.7109091 118.17975,20.4518182 118.17975,17.7372727 L118.17975,8.42727273 C118.17975,5.71090909 117.999079,5.27090909 116.656303,5.16909091 L115.984461,5.11636364 C115.829211,5.01454545 115.880961,4.54727273 116.036211,4.47090909 C117.300908,4.49545455 118.17975,4.54727273 119.291013,4.54727273 C120.297868,4.54727273 121.175803,4.52272727 122.286158,4.47090909 C122.441408,4.54727273 122.493158,5.01454545 122.337,5.11636364 L121.846737,5.16909091 C120.349618,5.32454545 120.297868,5.71090909 120.297868,8.42727273 L120.297868,11.4018182 C120.297868,12.2027273 120.349618,12.2272727 121.588895,12.2272727 L128.976434,12.2272727 C130.215711,12.2272727 130.266553,12.2027273 130.266553,11.4018182 L130.266553,8.42727273 C130.266553,5.71090909 130.215711,5.32454545 128.691355,5.16909091 L128.200184,5.11636364 C128.045842,5.01454545 128.097592,4.54727273 128.252842,4.47090909 C129.438553,4.52272727 130.319211,4.54727273 131.377816,4.54727273 C132.384671,4.54727273 133.263513,4.52272727 134.425618,4.47090909 C134.579961,4.54727273 134.632618,5.01454545 134.476461,5.11636364 L133.934447,5.16909091 C132.437329,5.32454545 132.384671,5.71090909 132.384671,8.42727273 L132.384671,17.7372727 C132.384671,20.4518182 132.437329,20.7890909 133.934447,20.9709091 L134.554539,21.0490909 C134.709789,21.1527273 134.658039,21.6172727 134.501882,21.6927273 C133.263513,21.6427273 132.384671,21.6172727 131.377816,21.6172727 C130.319211,21.6172727 129.389526,21.6427273 128.252842,21.6927273 C128.097592,21.6172727 128.045842,21.2027273 128.200184,21.0490909 L128.691355,20.9709091 C130.266553,20.7109091 130.266553,20.4518182 130.266553,17.7372727 L130.266553,14.0909091 C130.266553,13.3154545 130.215711,13.2645455 128.976434,13.2645455 L121.588895,13.2645455" id="Fill-49" fill="#212F57" sketch:type="MSShapeGroup"></path>
                            <path d="M147.530171,15.0281818 C147.530171,11.4290909 145.940447,7.54454545 141.77775,7.54454545 C139.512553,7.54454545 136.570974,9.09454545 136.570974,13.8727273 C136.570974,17.1 138.139816,21.2909091 142.432342,21.2909091 C145.047987,21.2909091 147.530171,19.3272727 147.530171,15.0281818 M134.391118,14.57 C134.391118,10.2072727 137.661355,6.86818182 142.148171,6.86818182 C147.182447,6.86818182 149.709118,10.5118182 149.709118,14.3518182 C149.709118,18.7590909 146.354447,21.9654545 142.148171,21.9654545 C137.311816,21.9654545 134.391118,18.4972727 134.391118,14.57" id="Fill-50" fill="#212F57" sketch:type="MSShapeGroup"></path>
                            <path d="M153.653013,18.3445455 C153.653013,20.6354545 153.696592,20.9190909 155.091118,21.0727273 L155.680342,21.1372727 C155.810171,21.2454545 155.7675,21.6172727 155.635855,21.6836364 C154.394763,21.6381818 153.675711,21.6172727 152.804132,21.6172727 C151.888066,21.6172727 151.104553,21.6381818 150.145816,21.6836364 C150.014171,21.6172727 149.9715,21.2681818 150.102237,21.1372727 L150.559816,21.0727273 C151.823605,20.8981818 151.866276,20.6354545 151.866276,18.3445455 L151.866276,10.2945455 C151.866276,8.43909091 151.823605,8.06818182 150.843079,7.95909091 L150.05775,7.87090909 C149.905224,7.74090909 149.927013,7.41363636 150.102237,7.32636364 C151.257079,7.17272727 152.608026,7.15090909 154.415645,7.15090909 C156.224171,7.15090909 157.576026,7.39090909 158.599224,8.02454545 C159.601539,8.65727273 160.342382,9.79181818 160.342382,11.2963636 C160.342382,13.3036364 159.101289,14.3090909 158.163434,14.7663636 C157.204697,15.2245455 156.050763,15.42 155.156487,15.42 C155.003961,15.3563636 155.003961,15.0281818 155.134697,14.9854545 C157.487961,14.5481818 158.33775,13.2163636 158.33775,11.3190909 C158.33775,9.20181818 157.09575,7.82909091 154.830553,7.82909091 C153.675711,7.82909091 153.653013,7.91454545 153.653013,8.61454545 L153.653013,18.3445455" id="Fill-51" fill="#212F57" sketch:type="MSShapeGroup"></path>
                            <path d="M162.720158,10.49 C162.720158,8.19909091 162.675671,7.85 161.411882,7.74181818 L160.867145,7.69818182 C160.736408,7.61 160.780895,7.21727273 160.909816,7.15181818 C161.9775,7.19636364 162.675671,7.21727273 163.655289,7.21727273 C164.505079,7.21727273 165.246829,7.19636364 166.183776,7.15181818 C166.314513,7.21727273 166.358092,7.61 166.226447,7.69818182 L165.813355,7.74181818 C164.548658,7.87181818 164.505079,8.19909091 164.505079,10.49 L164.505079,13.0009091 C164.505079,13.4136364 164.548658,13.8272727 164.790158,13.8272727 C164.985355,13.8272727 165.246829,13.6972727 165.399355,13.5881818 C165.704408,13.3272727 166.270934,12.7590909 166.510618,12.54 L168.862974,10.2072727 C169.276974,9.81272727 170.345566,8.70090909 170.562553,8.39636364 C170.672408,8.24181818 170.715987,8.13363636 170.715987,8.04636364 C170.715987,7.95909091 170.628829,7.89454545 170.345566,7.82909091 L169.75725,7.69818182 C169.604724,7.54454545 169.626513,7.26181818 169.799921,7.15181818 C170.562553,7.19636364 171.434132,7.21727273 172.196763,7.21727273 C172.960303,7.21727273 173.700237,7.19636364 174.353013,7.15181818 C174.507355,7.26181818 174.528237,7.56727273 174.398408,7.69818182 C173.831882,7.74181818 172.982092,7.95909091 172.371987,8.30909091 C171.762789,8.65727273 170.540763,9.68181818 169.320553,10.84 L167.360408,12.6927273 C167.055355,13.0009091 166.858342,13.1963636 166.858342,13.37 C166.858342,13.5245455 166.989987,13.6972727 167.272342,14.0463636 C169.342342,16.4227273 171.020132,18.3881818 172.720618,20.1763636 C173.243566,20.7009091 173.640316,20.9854545 174.38025,21.0727273 L174.800605,21.1381818 C174.954039,21.2454545 174.909553,21.6163636 174.756118,21.6836364 C174.189592,21.6390909 173.592197,21.6163636 172.568092,21.6163636 C171.675632,21.6163636 170.910276,21.6390909 169.908868,21.6836364 C169.75725,21.6390909 169.691882,21.2672727 169.822618,21.1381818 L170.323776,21.0481818 C170.628829,21.0054545 170.846724,20.94 170.846724,20.8327273 C170.846724,20.7009091 170.694197,20.5272727 170.540763,20.3290909 C170.126763,19.8063636 169.561145,19.2172727 168.733145,18.2781818 L166.989987,16.3154545 C165.747987,14.92 165.399355,14.4836364 164.876408,14.4836364 C164.548658,14.4836364 164.505079,14.7672727 164.505079,15.5309091 L164.505079,18.3454545 C164.505079,20.6345455 164.548658,20.94 165.769776,21.0727273 L166.358092,21.1381818 C166.487921,21.2254545 166.44525,21.6163636 166.314513,21.6836364 C165.246829,21.6390909 164.505079,21.6163636 163.655289,21.6163636 C162.761921,21.6163636 162.021079,21.6390909 161.128618,21.6836364 C160.997882,21.6163636 160.953395,21.2909091 161.085039,21.1381818 L161.520829,21.0727273 C162.675671,20.8972727 162.720158,20.6345455 162.720158,18.3454545 L162.720158,10.49" id="Fill-52" fill="#212F57" sketch:type="MSShapeGroup"></path>
                            <path d="M177.675,10.5336364 C177.675,8.22181818 177.631421,7.84909091 176.344934,7.74181818 L175.802013,7.69727273 C175.670368,7.61 175.713947,7.21818182 175.844684,7.15090909 C176.934158,7.19636364 177.675,7.21818182 178.590158,7.21818182 C179.461737,7.21818182 180.202579,7.19636364 181.292053,7.15090909 C181.422789,7.21818182 181.466368,7.61 181.335632,7.69727273 L180.790895,7.74181818 C179.505316,7.84909091 179.461737,8.22181818 179.461737,10.5336364 L179.461737,18.3 C179.461737,20.6145455 179.505316,20.92 180.790895,21.0727273 L181.335632,21.1372727 C181.466368,21.2254545 181.422789,21.6163636 181.292053,21.6836364 C180.202579,21.6390909 179.461737,21.6163636 178.590158,21.6163636 C177.675,21.6163636 177.017684,21.6390909 175.928211,21.6836364 C175.797474,21.6163636 175.753895,21.2681818 175.885539,21.1372727 L176.344934,21.0727273 C177.631421,20.92 177.675,20.6145455 177.675,18.3 L177.675,10.5336364" id="Fill-53" fill="#212F57" sketch:type="MSShapeGroup"></path>
                            <path d="M196.522895,17.9081818 C196.522895,18.5636364 196.522895,21.1581818 196.589171,21.7254545 C196.545592,21.8572727 196.414855,21.9654545 196.175171,21.9654545 C195.913697,21.5963636 195.281803,20.8327273 193.386118,18.6718182 L188.330961,12.9118182 C187.742645,12.2354545 186.260053,10.4463636 185.803382,9.96818182 L185.760711,9.96818182 C185.672645,10.2290909 185.649947,10.73 185.649947,11.3845455 L185.649947,16.1418182 C185.649947,17.1663636 185.672645,20.0036364 186.043066,20.6563636 C186.174711,20.8981818 186.609592,21.0281818 187.154329,21.0718182 L187.829803,21.1381818 C187.959632,21.3109091 187.937842,21.5736364 187.786224,21.6827273 C186.805697,21.6390909 186.043066,21.6163636 185.236855,21.6163636 C184.322605,21.6163636 183.733382,21.6390909 182.971658,21.6827273 C182.818224,21.5736364 182.796434,21.2672727 182.927171,21.1381818 L183.516395,21.0718182 C184.016645,21.0054545 184.365276,20.8754545 184.474224,20.6354545 C184.779276,19.8509091 184.757487,17.1890909 184.757487,16.1418182 L184.757487,9.83636364 C184.757487,9.22454545 184.735697,8.76545455 184.278118,8.26545455 C183.973066,7.96 183.450118,7.80636364 182.927171,7.74090909 L182.55675,7.69818182 C182.426013,7.56727273 182.426013,7.24090909 182.601237,7.15181818 C183.516395,7.21727273 184.670329,7.21727273 185.062539,7.21727273 C185.411171,7.21727273 185.781592,7.19636364 186.064855,7.15181818 C186.501553,8.26545455 189.071803,11.1454545 189.789947,11.9527273 L191.904434,14.33 C193.407908,16.01 194.474684,17.2318182 195.499697,18.2790909 L195.543276,18.2790909 C195.630434,18.1709091 195.630434,17.8209091 195.630434,17.3627273 L195.630434,12.6936364 C195.630434,11.6681818 195.608645,8.83272727 195.194645,8.17727273 C195.063908,7.98090909 194.716184,7.85 193.844605,7.74090909 L193.474184,7.69818182 C193.32075,7.56727273 193.342539,7.21727273 193.515947,7.15181818 C194.519171,7.19636364 195.259105,7.21727273 196.088013,7.21727273 C197.025868,7.21727273 197.591487,7.19636364 198.331421,7.15181818 C198.506645,7.26181818 198.506645,7.56727273 198.375908,7.69818182 L198.070855,7.74090909 C197.372684,7.85 196.937803,8.02545455 196.849737,8.19909091 C196.479316,8.98454545 196.522895,11.69 196.522895,12.6936364 L196.522895,17.9081818" id="Fill-54" fill="#212F57" sketch:type="MSShapeGroup"></path>
                            <path d="M202.246263,21.9654545 C200.415039,21.9654545 199.261105,21.3990909 198.846197,21.1581818 C198.584724,20.6781818 198.301461,19.13 198.256974,18.1054545 C198.367737,17.9509091 198.694579,17.9081818 198.779921,18.04 C199.107671,19.1509091 200.001039,21.2909091 202.529526,21.2909091 C204.358934,21.2909091 205.253211,20.09 205.253211,18.7818182 C205.253211,17.8209091 205.055289,16.7527273 203.464658,15.7263636 L201.396474,14.3727273 C200.306092,13.6536364 199.041395,12.4090909 199.041395,10.6209091 C199.041395,8.54818182 200.654724,6.86909091 203.488263,6.86909091 C204.162829,6.86909091 204.946342,7 205.513776,7.15181818 C205.797947,7.24090909 206.102092,7.28363636 206.2755,7.28363636 C206.472513,7.80636364 206.668618,9.02909091 206.668618,9.94454545 C206.580553,10.0763636 206.232829,10.1409091 206.123882,10.0109091 C205.840618,8.96272727 205.253211,7.54454545 203.160513,7.54454545 C201.025145,7.54454545 200.567566,8.96272727 200.567566,9.96818182 C200.567566,11.2318182 201.613461,12.1481818 202.418763,12.6509091 L204.162829,13.7409091 C205.535566,14.5918182 206.886513,15.8572727 206.886513,17.93 C206.886513,20.3290909 205.077987,21.9654545 202.246263,21.9654545" id="Fill-55" fill="#212F57" sketch:type="MSShapeGroup"></path>
                        </g>
                    </g>
                </g>
            </g>
        </g>
    </g>
</svg>