<?xml version="1.0" encoding="UTF-8" standalone="no"?>
<svg width="14px" height="12px" viewBox="0 0 14 12" version="1.1" xmlns="http://www.w3.org/2000/svg" xmlns:xlink="http://www.w3.org/1999/xlink" xmlns:sketch="http://www.bohemiancoding.com/sketch/ns">
    <!-- Generator: Sketch Beta 3.2.2 (9983) - http://www.bohemiancoding.com/sketch -->
    <title>icon-chat-small-grey</title>
    <desc>Created with Sketch Beta.</desc>
    <defs></defs>
    <g id="Option-1" stroke="none" stroke-width="1" fill="none" fill-rule="evenodd" sketch:type="MSPage">
        <g id="Public-Homepage---Alternate-Color---01" sketch:type="MSArtboardGroup" transform="translate(-244.000000, -859.000000)" fill="#7E7E7C">
            <g id="pages/homepage-02-color-01" sketch:type="MSLayerGroup" transform="translate(-1.000000, 0.000000)">
                <g id="Components-/-Content-/-Challenges" transform="translate(171.000000, 642.000000)" sketch:type="MSShapeGroup">
                    <g id="challenges" transform="translate(0.000000, 40.000000)">
                        <g id="challenge">
                            <g id="content" transform="translate(0.000000, 93.000000)">
                                <g id="Rectangle-42">
                                    <g id="10:0:0" transform="translate(0.000000, 10.000000)">
                                        <g id="footer" transform="translate(0.000000, 62.000000)">
                                            <g id="comments" transform="translate(74.000000, 10.000000)">
                                                <path d="M9.18760938,2 L4.8125,2 C2.15889844,2 0,4.11483929 0,6.71428571 C0,9.021125 1.70007031,10.9463214 3.9375,11.3504107 L3.9375,13.1428571 C3.9375,13.4895179 4.15067187,13.8020536 4.47770312,13.93475 C4.585875,13.9786786 4.699625,14 4.81233594,14 C5.04005469,14 5.26383594,13.9129464 5.43128906,13.7489107 L7.79991406,11.4285714 L9.18760938,11.4285714 C11.8411563,11.4285714 14,9.313625 14,6.71428571 C14,4.11483929 11.8411563,2 9.18760938,2" id="icon-chat-small-grey"></path>
                                            </g>
                                        </g>
                                    </g>
                                </g>
                            </g>
                        </g>
                    </g>
                </g>
            </g>
        </g>
    </g>
</svg>