<?xml version="1.0" encoding="UTF-8" standalone="no"?>
<svg width="52px" height="102px" viewBox="0 0 52 102" version="1.1" xmlns="http://www.w3.org/2000/svg" xmlns:xlink="http://www.w3.org/1999/xlink" xmlns:sketch="http://www.bohemiancoding.com/sketch/ns">
    <!-- Generator: Sketch Beta 3.2.2 (9983) - http://www.bohemiancoding.com/sketch -->
    <title>icon-bulb-flourescent</title>
    <desc>Created with Sketch Beta.</desc>
    <defs></defs>
    <g id="Option-1" stroke="none" stroke-width="1" fill="none" fill-rule="evenodd" sketch:type="MSPage">
        <g id="Public-Homepage---Alternate" sketch:type="MSArtboardGroup" transform="translate(-170.000000, -288.000000)" fill="#FFCD00">
            <g id="pages/homepage-02" sketch:type="MSLayerGroup" transform="translate(-1.000000, 0.000000)">
                <g id="Billboard" sketch:type="MSShapeGroup">
                    <g id="Promo" transform="translate(171.000000, 288.000000)">
                        <path d="M5.23990698,15.8778677 C5.71072868,15.8778677 6.1896124,15.8096031 6.66365891,15.66593 L27.624093,9.3161323 C30.1773333,8.54259922 31.6103566,5.87750195 30.8243101,3.36361868 C30.0382636,0.849735409 27.3326512,-0.561198444 24.7790078,0.21233463 L3.81897674,6.56252918 C1.26533333,7.33566537 -0.167689922,10.0007626 0.618356589,12.5146459 C1.25807752,14.5617899 3.172,15.8778677 5.23990698,15.8778677 Z M5.23990698,30.1658054 C5.71072868,30.1658054 6.1896124,30.0975409 6.66365891,29.9534708 L48.5837209,17.2534786 C51.1373643,16.4803424 52.5703876,13.8148482 51.7843411,11.3013619 C50.9991008,8.7874786 48.2930853,7.37654475 45.7390388,8.14968093 L3.81897674,20.85007 C1.26533333,21.6232062 -0.167689922,24.2887004 0.618356589,26.8025837 C1.25807752,28.8493307 3.172,30.1658054 5.23990698,30.1658054 Z M45.9885581,36.6561012 L33.0897364,39.8311984 C30.9367752,40.3614397 29.4263566,42.2664981 29.4263566,44.4521556 L29.4263566,53.9766537 L6.85271318,53.9766537 C5.07181395,53.9766537 3.62790698,55.3983035 3.62790698,57.151751 L3.62790698,73.0272374 C3.62790698,78.2792451 7.96809302,82.5525292 13.3023256,82.5525292 L13.3023256,92.077821 C13.3023256,95.5791595 16.1953798,98.4280156 19.7515349,98.4280156 L21.3643411,98.4280156 C21.3643411,100.181463 22.8082481,101.603113 24.5891473,101.603113 L27.8139535,101.603113 C29.5948527,101.603113 31.0387597,100.181463 31.0387597,98.4280156 L32.6507597,98.4280156 C36.2069147,98.4280156 39.1007752,95.5791595 39.1007752,92.077821 L39.1007752,82.5525292 C44.4354109,82.5525292 48.7751938,78.2792451 48.7751938,73.0272374 L48.7751938,57.151751 C48.7751938,55.3983035 47.3312868,53.9766537 45.5503876,53.9766537 L39.1007752,53.9766537 L39.1007752,48.1701946 L48.3354109,45.8968249 C50.9269457,45.2590272 52.5022636,42.6733074 51.8540775,40.121323 C51.2058915,37.5693385 48.5813023,36.0190973 45.9885581,36.6561012 Z M35.875969,92.077821 C35.875969,93.8241245 34.424,95.2529183 32.6507597,95.2529183 L19.7515349,95.2529183 C17.9782946,95.2529183 16.5271318,93.8241245 16.5271318,92.077821 L16.5271318,82.5525292 L35.875969,82.5525292 L35.875969,92.077821 L35.875969,92.077821 Z M45.5503876,57.151751 L45.5503876,73.0272374 C45.5503876,76.5198444 42.648062,79.3774319 39.1007752,79.3774319 L13.3023256,79.3774319 C9.75503876,79.3774319 6.85271318,76.5198444 6.85271318,73.0272374 L6.85271318,57.151751 L45.5503876,57.151751 Z M45.7394419,22.4372218 L3.81937984,35.137214 C1.92964341,35.7095253 0.584093023,37.356607 0.420837209,39.2961946 C0.257581395,41.2357821 1.31007752,43.0781323 3.07848062,43.9489027 L15.9768992,50.2987004 C16.6714419,50.6408171 17.4091163,50.8027471 18.1363101,50.8027471 C19.9103566,50.8027471 21.6186977,49.8379144 22.4660155,48.1690039 C23.6608062,45.8162568 22.6925581,42.9558911 20.3029767,41.7795175 L18.2024186,40.7452296 L48.5837209,31.5410195 C51.1373643,30.7678833 52.5703876,28.1023891 51.7843411,25.5889027 C50.9995039,23.0750195 48.2934884,21.6636887 45.7394419,22.4372218 Z" id="icon-bulb-flourescent"></path>
                    </g>
                </g>
            </g>
        </g>
    </g>
</svg>